<svg version="1.1" id="Layer_1" xmlns="http://www.w3.org/2000/svg" xmlns:xlink="http://www.w3.org/1999/xlink" x="0px" y="0px"
	 width="100%" viewBox="0 0 503 207" enable-background="new 0 0 503 207" xml:space="preserve">

<path fill="#0FE3E7" opacity="1.000000" stroke="none" 
	d="
M427.718628,101.815834 
	C426.898224,102.327583 426.077850,102.839325 424.715271,103.689392 
	C421.069153,105.768250 420.692719,107.573494 423.010376,110.660919 
	C426.131073,114.818062 428.537140,119.511627 430.930176,124.247177 
	C428.103729,124.745781 425.597076,124.972153 422.826294,125.132187 
	C422.382782,125.038345 422.203339,125.010834 421.817535,124.725281 
	C420.395996,123.486938 419.180817,122.506615 417.965637,121.526291 
	C417.965637,121.526291 418.000000,121.500275 417.982819,121.123039 
	C415.546143,116.906906 413.126617,113.068008 410.707123,109.229118 
	C410.707123,109.229118 410.799957,109.179512 410.718872,108.879578 
	C408.327911,104.696152 405.004425,106.973404 401.903351,107.240723 
	C401.629730,107.457932 401.570648,107.629105 401.514618,108.283081 
	C401.293823,111.173866 401.163361,113.613998 400.837494,116.390701 
	C400.366302,119.457703 400.090546,122.188148 399.607758,124.945221 
	C399.400757,124.971855 398.992676,125.059555 398.620789,125.042496 
	C397.506439,125.063164 396.764038,125.100899 395.592590,125.096008 
	C391.354004,125.493935 389.671387,124.038483 390.006104,119.990158 
	C390.306854,116.353386 390.040405,112.669716 390.055359,108.538437 
	C390.087616,99.596054 390.107971,91.121887 390.079285,82.647896 
	C390.069183,79.662628 390.810730,77.117470 394.330841,77.168617 
	C402.452789,77.286636 410.656403,77.007935 418.668762,78.076256 
	C428.017822,79.322815 432.737274,88.864861 429.205261,97.599396 
	C428.647186,98.979591 428.211090,100.409111 427.718628,101.815834 
M416.311859,97.037270 
	C419.109344,94.540878 419.165863,91.511086 417.589203,88.481110 
	C416.446014,86.284149 406.996033,84.441498 404.083405,86.328224 
	C402.683044,87.235336 402.375427,90.136292 401.969971,92.211914 
	C400.964417,97.359657 403.415527,99.180328 408.338928,98.422745 
	C410.773682,98.048096 413.230164,97.814423 416.311859,97.037270 
z"/>
<path fill="#37BCBA" opacity="1.000000" stroke="none" 
	d="
M254.250046,77.074463 
	C264.396515,74.002701 273.944000,74.002846 283.027008,79.349693 
	C288.601990,82.631508 288.813934,84.004814 284.603119,88.753731 
	C283.733917,89.734016 282.950348,90.790276 281.728699,92.306107 
	C280.361481,91.349777 279.027405,90.519844 277.808594,89.545647 
	C273.302582,85.943962 268.085266,85.312172 262.711029,86.358475 
	C261.275146,86.638031 259.658722,88.374817 259.116028,89.815765 
	C258.858551,90.499443 260.720184,92.681541 261.986938,93.113098 
	C266.536316,94.663010 271.225189,95.819504 275.891327,97.006905 
	C283.714386,98.997643 287.284241,102.934296 287.728882,110.241188 
	C288.111969,116.536354 283.910767,122.864998 277.369232,125.076637 
	C266.292419,128.821609 255.735352,127.432953 245.844070,121.157776 
	C243.163391,119.457100 241.102371,117.363510 244.245682,114.546097 
	C246.338303,112.670425 246.654495,106.995758 252.275238,111.469185 
	C255.873795,114.333183 261.377045,115.248055 266.183960,115.936096 
	C268.170868,116.220482 271.825287,114.092773 272.516785,112.239532 
	C273.897766,108.538506 269.879578,108.394829 267.551758,107.700546 
	C263.734802,106.562111 259.769012,105.930458 255.929626,104.857468 
	C250.378525,103.306099 245.532288,100.569740 244.548676,94.329155 
	C243.461868,87.433853 246.222733,81.989105 252.192413,78.259377 
	C252.756546,77.906914 253.327866,77.565987 254.250046,77.074463 
M255.349335,115.818649 
	C254.211487,115.139420 252.950958,114.603317 251.959457,113.753357 
	C249.290634,111.465446 247.416931,112.349426 246.144363,115.153870 
	C243.992722,119.895546 247.908157,120.221306 251.220932,121.855141 
	C258.679352,127.212646 275.533020,125.821373 281.876251,119.324524 
	C287.503723,113.560753 286.753998,106.976089 280.318787,102.245766 
	C275.576416,98.759811 270.233948,97.770538 264.685059,96.520584 
	C261.604736,95.826698 257.915588,92.778587 256.771667,89.891762 
	C255.490463,86.658463 260.150085,83.340752 264.964111,83.261742 
	C266.262238,83.240433 267.625092,83.451393 268.857788,83.859230 
	C272.303314,84.999168 275.624268,86.657547 279.144348,87.362183 
	C280.611908,87.655945 282.570831,86.212593 284.044281,85.183853 
	C284.357330,84.965294 283.887421,82.554382 283.174530,82.099335 
	C273.795349,76.112648 258.063416,73.367592 248.430756,85.125191 
	C245.384247,88.843750 245.225586,95.007210 248.781540,98.281586 
	C250.530426,99.891998 253.287399,100.476860 255.659561,101.326546 
	C260.358093,103.009514 265.007263,105.251419 269.864349,105.940659 
	C273.926727,106.517120 274.908997,109.538986 276.001129,111.953491 
	C276.426849,112.894760 273.326996,115.941689 271.332153,117.286758 
	C270.007111,118.180191 267.794098,117.756660 265.105774,117.879913 
	C262.796875,117.791557 260.487946,117.703201 257.962830,117.077988 
	C257.310822,116.733521 256.658783,116.389053 255.349335,115.818649 
z"/>
<path fill="#092C3B" opacity="1.000000" stroke="none" 
	d="
M175.999969,123.925697 
	C174.740280,121.824234 173.480576,119.722771 172.001984,117.015556 
	C171.170715,115.941551 170.558334,115.473289 169.945953,115.005028 
	C169.945953,115.005028 170.001892,114.995369 170.001831,114.673431 
	C169.319214,113.240402 168.636627,112.129311 167.954041,111.018219 
	C167.954041,111.018219 167.994431,110.993065 167.873306,110.793503 
	C167.555023,110.309814 167.291840,110.114784 166.962616,110.008858 
	C166.962616,110.008858 167.005661,110.010605 167.005005,109.676605 
	C166.319397,108.232269 165.634460,107.121948 164.949524,106.011620 
	C164.949524,106.011620 164.995697,105.989975 164.870117,105.796432 
	C164.481720,105.402954 164.218918,105.203011 163.956100,105.003075 
	C163.956100,105.003075 164.005814,105.000092 163.961884,104.724625 
	C163.598267,103.967323 163.278595,103.485474 162.958923,103.003632 
	C162.958923,103.003632 163.004959,102.993500 162.880615,102.793304 
	C162.490799,102.396973 162.225357,102.200836 161.959900,102.004692 
	C161.959900,102.004692 162.005310,101.999748 161.969971,101.719833 
	C161.608917,100.963509 161.283203,100.487106 160.957474,100.010704 
	C160.957474,100.010704 161.000549,99.994774 160.876068,99.792007 
	C160.485855,99.391571 160.220139,99.193901 159.954422,98.996231 
	C159.954422,98.996231 160.007828,98.999413 160.001984,98.695618 
	C159.391434,97.647484 158.786743,96.903145 158.182037,96.158806 
	C156.322906,92.910179 154.463776,89.661560 152.295441,85.880630 
	C151.749527,84.815231 151.512833,84.282150 151.276123,83.749069 
	C150.845856,83.783768 150.415573,83.818474 149.985306,83.853172 
	C149.985306,97.562965 149.985306,111.272751 149.573242,124.990845 
	C145.426941,125.090569 146.055496,122.318832 146.047440,120.106628 
	C146.002747,107.855217 146.007919,95.603592 146.012878,83.352036 
	C146.015656,76.486809 147.066147,75.796028 154.046234,77.992401 
	C154.046234,77.992401 153.999924,78.002800 154.038239,78.280853 
	C154.399506,79.033409 154.722427,79.507919 155.045364,79.982422 
	C155.045364,79.982422 154.996429,79.990639 155.046387,80.296059 
	C155.745804,81.394196 156.395264,82.186920 157.044739,82.979637 
	C157.044739,82.979637 157.006866,83.006943 157.125946,83.209213 
	C157.510117,83.606415 157.775208,83.801353 158.040314,83.996292 
	C158.040314,83.996292 157.993027,83.995293 158.003403,84.324341 
	C158.692520,85.429840 159.371262,86.206291 160.050003,86.982742 
	C160.050003,86.982742 160.004272,87.005249 159.996185,87.348541 
	C161.009262,89.121529 162.030411,90.551224 163.051544,91.980927 
	C163.051544,91.980927 163.005890,92.005806 163.005203,92.300682 
	C163.558990,93.345459 164.113480,94.095352 164.667953,94.845253 
	C166.600555,97.999374 168.533173,101.153488 170.721344,104.891663 
	C171.330841,105.978554 171.684753,106.481377 172.038666,106.984207 
	C172.038666,106.984207 171.999680,107.002144 172.125702,107.203430 
	C172.448990,107.683990 172.709702,107.877930 173.033905,107.986549 
	C173.033905,107.986549 172.997787,107.984589 172.997009,108.323364 
	C173.679672,109.766418 174.363129,110.870705 175.046570,111.974991 
	C175.046570,111.974991 175.008347,112.001221 175.051636,112.279373 
	C175.410706,113.029099 175.726501,113.500664 176.042297,113.972229 
	C176.042297,113.972229 176.002823,114.001526 176.133087,114.205109 
	C176.468597,114.679138 176.730270,114.873749 177.048355,114.992516 
	C177.048355,114.992516 176.987152,114.970177 177.044403,115.262970 
	C177.635361,116.064262 178.169052,116.572754 178.702759,117.081238 
	C179.135788,115.766907 179.933548,114.455750 179.944977,113.137764 
	C180.049377,101.100037 180.016983,89.061134 180.434357,77.014191 
	C184.537689,76.956467 183.954773,79.690842 183.960358,81.921715 
	C183.991013,94.169518 183.977402,106.417450 183.967987,118.665329 
	C183.962708,125.541809 182.724030,126.353043 175.999969,123.925697 
z"/>
<path fill="#082C3C" opacity="1.000000" stroke="none" 
	d="
M57.515083,81.040031 
	C58.018066,82.023560 58.521049,83.007088 59.000221,84.822052 
	C58.995846,88.445740 59.015278,91.237999 59.034706,94.030258 
	C59.034706,94.030258 58.997620,94.002899 58.792061,94.193909 
	C58.399902,94.935318 58.213299,95.485718 58.026695,96.036118 
	C58.026699,96.036118 57.994900,96.002708 57.783062,96.189606 
	C57.381012,96.934059 57.190804,97.491600 57.000595,98.049149 
	C57.000595,98.049149 56.991680,97.991905 56.720345,98.023163 
	C55.967728,98.383644 55.486446,98.712868 55.005165,99.042084 
	C55.005165,99.042084 55.012016,98.992439 54.700394,99.050072 
	C53.788155,99.724861 53.187542,100.342018 52.586929,100.959175 
	C53.405540,101.293137 54.224148,101.627106 55.042759,101.961067 
	C55.042759,101.961067 55.020283,102.004349 55.198601,102.215927 
	C55.930088,102.609909 56.483261,102.792313 57.036430,102.974724 
	C57.036430,102.974724 56.993141,102.992012 57.063324,103.284912 
	C57.771446,104.046089 58.409389,104.514374 59.047333,104.982666 
	C59.047329,104.982666 59.004429,105.006119 59.016655,105.403870 
	C59.360416,109.879585 59.691952,113.957558 60.023491,118.035522 
	C60.023491,118.035522 59.995369,117.999443 59.795635,118.116165 
	C59.402950,118.501404 59.209999,118.769920 59.017052,119.038437 
	C59.017048,119.038437 58.997810,118.995705 58.786949,119.189011 
	C58.389439,119.934906 58.202789,120.487495 58.016140,121.040092 
	C58.016140,121.040092 57.989437,121.000931 57.792534,121.123291 
	C57.392487,121.511459 57.189339,121.777267 56.986191,122.043076 
	C56.986187,122.043076 56.993740,121.985817 56.671463,121.988342 
	C55.232426,122.678558 54.115669,123.366249 52.998917,124.053940 
	C52.998917,124.053947 53.001823,123.999641 52.608986,124.003830 
	C49.777241,124.308907 47.338333,124.609802 44.564301,124.691330 
	C40.256355,124.314758 36.268631,123.871872 32.314766,124.078102 
	C28.086634,124.298653 26.871788,122.621986 26.925829,118.555206 
	C27.109356,104.743889 26.981535,90.928429 27.442463,77.093002 
	C37.933075,77.251686 48.224644,75.412025 57.515083,81.040031 
M50.796677,83.563316 
	C50.606659,83.288872 50.360016,83.081902 49.500618,82.407875 
	C43.309086,82.252815 37.117554,82.097755 30.483971,82.646629 
	C30.339680,86.786270 29.986814,90.935394 30.174486,95.059929 
	C30.233009,96.346092 31.797468,98.670471 32.596222,98.638069 
	C38.112484,98.414291 43.608551,97.692757 49.759167,97.052063 
	C50.535019,96.403099 51.310871,95.754128 52.503788,94.679787 
	C52.664387,94.117622 52.824986,93.555450 53.512661,92.446770 
	C52.994141,89.976845 52.475624,87.506920 51.751598,84.594208 
	C51.559681,84.316261 51.303860,84.122810 50.796677,83.563316 
M50.715263,104.487915 
	C49.476887,104.317818 48.238506,104.147720 46.069538,104.001114 
	C41.425877,104.010605 36.782215,104.020096 31.371305,104.266235 
	C29.115278,108.625580 29.455603,117.189804 32.686653,120.499367 
	C38.489948,120.326347 44.293247,120.153328 50.759441,119.808655 
	C54.709110,118.181190 56.290619,114.711693 55.638218,111.052818 
	C55.242176,108.831711 52.590019,107.012878 51.006878,104.996262 
	C51.006878,104.996262 51.003662,105.054222 50.715263,104.487915 
z"/>
<path fill="#31C5C3" opacity="1.000000" stroke="none" 
	d="
M382.812256,124.726517 
	C373.822784,128.666336 369.480499,126.708138 367.013824,118.032158 
	C366.877747,117.553566 366.801544,116.678391 366.606506,116.651680 
	C361.860565,116.001518 357.111908,115.252823 352.338837,115.008659 
	C351.251923,114.953056 350.068085,116.693085 348.943756,117.624611 
	C348.835693,117.714134 348.840607,117.934380 348.781677,118.089615 
	C345.393860,127.011948 343.261414,128.075424 332.498505,125.588158 
	C334.341492,120.141380 336.114441,114.725395 338.005676,109.351051 
	C341.314209,99.949226 344.865265,90.628586 347.966644,81.159927 
	C349.295502,77.102844 351.121643,75.309662 355.736359,75.466408 
	C366.030243,75.816048 366.086060,75.514496 369.466431,85.244980 
	C373.988373,98.261429 378.430084,111.305756 382.812256,124.726517 
M369.353027,93.351669 
	C368.815552,92.604027 368.070099,91.929634 367.776489,91.096085 
	C366.488586,87.439926 366.185455,82.995323 363.842163,80.299690 
	C362.132660,78.333130 357.808136,78.220901 354.627411,78.139526 
	C353.169189,78.102219 350.834473,79.821411 350.302429,81.262726 
	C346.301605,92.101624 342.630249,103.062729 338.904663,114.002258 
	C337.871796,117.035172 337.003326,120.124084 336.045288,123.233200 
	C342.440186,124.700630 342.025238,124.458389 344.614410,120.023415 
	C346.301147,117.134254 349.038300,113.833359 351.974304,112.955330 
	C355.730988,111.831871 360.219635,112.608665 364.274048,113.282051 
	C366.036255,113.574715 368.749207,115.524399 368.891418,116.936806 
	C369.577789,123.755013 374.305603,124.083580 380.129974,124.681976 
	C379.675354,122.713577 379.550568,121.129974 378.944061,119.759529 
	C377.590546,116.701012 375.626953,113.871681 374.582123,110.726341 
	C372.743530,105.191635 371.406586,99.490288 369.353027,93.351669 
z"/>
<path fill="#33C4C1" opacity="1.000000" stroke="none" 
	d="
M311.002319,75.674812 
	C318.483215,75.658768 325.465668,75.710632 332.445404,75.596687 
	C335.902985,75.540245 337.775452,76.511543 337.320770,80.477722 
	C336.964355,83.586838 337.852448,86.591209 332.665405,86.550842 
	C320.672394,86.457520 320.684479,86.742996 320.707825,99.031075 
	C320.722351,106.677170 320.483795,114.330734 320.762543,121.966202 
	C320.889465,125.442589 319.391815,126.394241 316.438904,126.395584 
	C316.272858,126.395660 316.106781,126.407898 315.940765,126.415756 
	C307.034119,126.837402 307.022339,126.837448 307.001587,118.097946 
	C306.980682,109.287933 306.746368,100.468697 307.081848,91.671669 
	C307.249115,87.285820 305.587921,86.004807 301.591736,86.400681 
	C299.619141,86.596092 297.588318,86.243492 295.624268,86.477753 
	C291.684265,86.947708 290.625793,85.395683 290.399261,81.460854 
	C290.131805,76.814308 291.891266,75.502022 296.049866,75.621658 
	C300.864014,75.760147 305.684814,75.666946 311.002319,75.674812 
M308.933350,120.211136 
	C308.839966,125.101463 312.451782,123.991142 315.288757,124.135109 
	C318.573639,124.301804 319.026886,122.247284 319.012512,119.605309 
	C318.964478,110.788673 319.323029,101.954895 318.861237,93.162590 
	C318.669037,89.503304 319.132111,86.558601 321.004974,83.429581 
	C322.895294,80.271408 324.444092,80.784149 326.881683,82.620293 
	C328.215576,83.625076 330.250031,84.461197 331.750427,84.185585 
	C332.591461,84.031082 333.847168,81.008133 333.366577,80.079544 
	C332.763519,78.914398 330.584229,77.996437 329.065338,77.966072 
	C319.087677,77.766556 309.102234,77.959671 299.124420,77.764961 
	C293.933136,77.663666 293.335907,78.053574 293.828644,84.243149 
	C296.824402,84.243149 299.914948,84.223640 303.005157,84.248154 
	C306.768158,84.278000 309.628052,85.443336 309.545166,89.891098 
	C309.362640,99.685974 309.131317,109.479935 308.933350,120.211136 
z"/>
<path fill="#2F3A3E" opacity="1.000000" stroke="none" 
	d="
M132.920822,120.110207 
	C135.032822,125.358566 134.186447,126.863518 128.877747,126.900856 
	C119.722931,126.965263 110.565239,126.806938 101.413116,126.976959 
	C97.645821,127.046944 95.986275,125.872871 96.031235,121.859016 
	C96.187859,107.878174 96.171982,93.893845 96.045143,79.912437 
	C96.011154,76.166130 97.546677,74.984932 101.122643,75.045471 
	C110.108810,75.197601 119.100319,75.165764 128.087723,75.052330 
	C132.028946,75.002586 133.787781,76.407600 132.059067,80.722183 
	C131.308151,80.974503 131.108688,80.963058 130.923828,80.547592 
	C129.615112,79.106201 128.320267,77.216232 126.963837,77.170975 
	C118.659500,76.893867 110.340881,77.077446 102.027779,77.011505 
	C99.390419,76.990578 98.006218,77.869530 98.018021,80.729271 
	C98.073578,94.197105 98.074371,107.665428 98.018127,121.133255 
	C98.006660,123.880379 99.136948,125.024925 101.880905,125.005463 
	C110.692825,124.942955 119.505898,124.943336 128.317703,125.017334 
	C131.164932,125.041252 132.252090,123.749481 132.140869,120.915237 
	C132.571503,120.601974 132.769028,120.376083 132.920822,120.110207 
z"/>
<path fill="#354247" opacity="1.000000" stroke="none" 
	d="
M200.234283,88.072464 
	C199.684814,75.146240 199.684814,75.145737 212.692169,75.141953 
	C219.190628,75.140068 225.689087,75.147682 232.187531,75.136055 
	C234.686737,75.131584 236.880478,75.318016 236.948898,78.717987 
	C237.020584,82.279633 234.709274,82.190849 232.255859,82.182175 
	C225.590912,82.158623 218.923462,82.282188 212.261795,82.133255 
	C209.109222,82.062767 207.771744,83.063591 207.827805,86.407799 
	C208.043427,99.272057 206.676453,96.756920 217.865784,97.032013 
	C221.358551,97.117889 224.851608,97.191170 228.678055,97.821320 
	C228.986191,98.612793 228.960831,98.853149 228.521637,99.055862 
	C226.718811,98.968475 225.329819,98.918716 223.597870,98.662003 
	C218.522766,98.593048 213.790634,98.731049 208.678711,98.801765 
	C207.538605,97.427048 206.280594,96.177391 206.120712,94.800255 
	C205.778137,91.849243 206.099579,88.828201 205.970505,85.843567 
	C205.811203,82.160004 207.541382,80.851593 211.097336,80.927361 
	C217.738510,81.068848 224.387222,81.045906 231.027344,80.876823 
	C232.258789,80.845459 233.464508,79.804443 234.682098,79.229408 
	C233.454666,78.496292 232.242508,77.159935 230.997314,77.128418 
	C223.195175,76.930916 215.377014,77.243797 207.582001,76.935822 
	C203.192810,76.762413 201.820526,78.228477 201.886963,82.608246 
	C202.096085,96.390862 201.912262,110.179436 201.668106,123.615646 
	C201.306549,117.137199 201.204697,111.007172 200.994385,104.880882 
	C200.801971,99.275986 200.492294,93.675110 200.234283,88.072464 
z"/>
<path fill="#2F3A3E" opacity="1.000000" stroke="none" 
	d="
M44.899422,124.910706 
	C47.338333,124.609802 49.777241,124.308907 52.627022,124.024170 
	C49.956570,124.974144 46.923252,126.436752 43.783028,126.721840 
	C38.658096,127.187103 33.462597,126.835442 28.298538,126.924751 
	C25.359472,126.975571 24.084618,125.709770 24.096544,122.733414 
	C24.154629,108.236526 24.140087,93.739235 24.108652,79.242180 
	C24.103014,76.642532 25.033598,75.030983 27.850100,75.127052 
	C34.993092,75.370689 42.181431,75.262756 49.254063,76.109947 
	C52.081944,76.448685 54.653625,78.926308 57.428505,80.735168 
	C48.224644,75.412025 37.933075,77.251686 27.196030,77.410583 
	C26.340277,92.384392 26.116600,107.019707 26.228893,121.652435 
	C26.237431,122.764709 28.565786,124.708511 29.923637,124.809021 
	C34.890865,125.176666 39.903740,124.927528 44.899422,124.910706 
z"/>
<path fill="#38C0BD" opacity="1.000000" stroke="none" 
	d="
M428.030273,101.631500 
	C428.211090,100.409111 428.647186,98.979591 429.205261,97.599396 
	C432.737274,88.864861 428.017822,79.322815 418.668762,78.076256 
	C410.656403,77.007935 402.452789,77.286636 394.330841,77.168617 
	C390.810730,77.117470 390.069183,79.662628 390.079285,82.647896 
	C390.107971,91.121887 390.087616,99.596054 389.864807,108.289047 
	C389.439667,107.698410 389.236298,106.888885 389.032928,106.079361 
	C388.959259,97.296997 388.868073,88.514717 388.823669,79.732201 
	C388.811859,77.398865 389.233643,75.445877 392.345398,75.519218 
	C400.629852,75.714439 408.952576,75.343468 417.195374,76.004509 
	C429.855255,77.019775 435.945892,88.662300 430.080658,99.901718 
	C429.745300,100.544327 428.932526,100.937775 428.030273,101.631500 
z"/>
<path fill="#2F3A3E" opacity="1.000000" stroke="none" 
	d="
M333.086639,149.437546 
	C333.056580,145.583542 333.056580,142.140076 333.056580,137.336563 
	C336.354858,138.304138 339.546417,138.980438 342.477783,140.255035 
	C343.385010,140.649506 344.007385,142.665543 344.024323,143.948883 
	C344.065277,147.054764 343.672913,150.166367 343.386841,154.252106 
	C341.559845,152.812729 339.514587,151.201385 337.136108,149.327545 
	C336.434723,150.232651 335.622864,151.280350 334.398560,152.860306 
	C333.884155,151.651505 333.500427,150.749802 333.086639,149.437546 
z"/>
<path fill="#3C464A" opacity="1.000000" stroke="none" 
	d="
M374.031433,148.697571 
	C373.757782,150.684418 373.485077,152.303131 373.212341,153.921860 
	C372.548035,153.863159 371.883759,153.804459 371.219482,153.745758 
	C371.219482,148.891022 371.219482,144.036285 371.219482,139.181549 
	C372.652161,139.523483 374.716888,139.399384 375.384766,140.305191 
	C376.737518,142.139893 377.333374,144.532669 379.328339,146.542419 
	C380.069824,143.707001 380.811310,140.871567 381.552795,138.036148 
	C382.298676,138.114304 383.044525,138.192444 383.790405,138.270584 
	C383.790405,143.064194 383.809418,147.858597 383.605103,152.643478 
	C383.602112,152.713684 380.186798,153.288574 379.454437,152.548645 
	C377.649353,150.724915 376.479950,148.272003 374.441071,145.124344 
	C374.213989,146.904938 374.123169,147.617172 374.031433,148.697571 
z"/>
<path fill="#AEA94F" opacity="1.000000" stroke="none" 
	d="
M430.034210,41.083199 
	C435.412476,38.980934 440.700623,36.586086 446.204254,34.890823 
	C449.294952,33.938805 450.628876,32.316902 450.877258,29.354263 
	C451.279694,24.554472 451.431854,19.711807 452.221100,14.975799 
	C452.601715,12.691834 453.753723,10.189310 455.337982,8.533574 
	C457.774567,5.987044 460.511536,6.613879 462.271149,9.727740 
	C464.227661,13.189990 465.989044,16.762512 467.861481,20.696043 
	C467.887573,21.105061 467.746826,21.234121 467.556305,21.165939 
	C467.365784,21.097757 466.968079,21.014023 466.752808,20.753437 
	C465.103577,17.891050 463.890900,15.126739 462.146973,12.752644 
	C461.204987,11.470245 459.236511,9.993093 457.946625,10.170524 
	C456.536896,10.364435 454.720428,12.156443 454.247437,13.627002 
	C453.352325,16.409958 452.880371,19.472267 452.960266,22.398628 
	C453.196289,31.039953 450.475250,37.036114 440.819916,37.807594 
	C439.540009,37.909859 438.307251,38.601971 436.741272,39.045361 
	C435.608002,39.610359 434.786041,40.150909 433.656189,40.785713 
	C432.935822,40.997936 432.523407,41.115913 431.764771,41.213650 
	C430.957153,41.156673 430.495667,41.119938 430.034210,41.083199 
z"/>
<path fill="#354247" opacity="1.000000" stroke="none" 
	d="
M292.774841,150.692719 
	C294.178619,147.093857 295.332214,143.790100 296.804535,140.635101 
	C297.282501,139.610870 298.607849,138.325455 299.521118,138.344284 
	C300.448456,138.363403 301.809875,139.682175 302.172638,140.715607 
	C303.485687,144.456207 304.458923,148.316101 304.978027,152.586609 
	C301.093445,150.293732 298.258301,148.296768 295.090607,153.238449 
	C293.786072,155.273529 291.893860,153.694290 292.774841,150.692719 
z"/>
<path fill="#2D3739" opacity="1.000000" stroke="none" 
	d="
M200.169861,88.529709 
	C200.492294,93.675110 200.801971,99.275986 200.994385,104.880882 
	C201.204697,111.007172 201.306549,117.137199 202.017197,123.862312 
	C212.807449,124.620667 223.037140,124.879074 233.263214,124.775696 
	C234.163147,124.766594 235.039154,122.389885 236.129868,120.971794 
	C236.595230,120.620178 236.799896,120.363991 236.947449,120.062164 
	C239.042007,125.357727 238.217896,126.860428 232.921844,126.904404 
	C223.597412,126.981850 214.270508,126.837532 204.947464,126.975876 
	C201.290390,127.030136 199.926849,125.612701 199.982361,121.955315 
	C200.149109,110.967766 200.081573,99.976669 200.169861,88.529709 
z"/>
<path fill="#414B4F" opacity="1.000000" stroke="none" 
	d="
M81.130219,84.100334 
	C81.123177,96.910110 81.115471,109.235321 81.108627,121.560532 
	C81.107216,124.095810 81.411079,126.747925 77.563362,126.764137 
	C73.765038,126.780144 73.936928,124.234306 73.940964,121.632225 
	C73.961884,108.141136 73.935112,94.649956 73.969002,81.158920 
	C73.975838,78.437737 73.165077,75.093132 77.778809,75.255844 
	C82.105812,75.408447 80.917076,78.657547 81.117821,81.118240 
	C81.185318,81.945572 81.129379,82.782974 81.130219,84.100334 
M79.969681,101.499969 
	C79.969406,94.841438 80.124657,88.176483 79.849770,81.529312 
	C79.787933,80.034042 78.224266,78.600883 77.351967,77.139130 
	C76.576286,78.532051 75.145073,79.916512 75.126953,81.319221 
	C74.957138,94.467583 74.958527,107.620010 75.135162,120.768250 
	C75.153854,122.159569 76.611969,123.531540 77.402283,124.912483 
	C78.258484,123.434311 79.780960,121.988007 79.853455,120.472351 
	C80.139435,114.493378 79.970154,108.492622 79.969681,101.499969 
z"/>
<path fill="#42AEAD" opacity="1.000000" stroke="none" 
	d="
M388.919800,106.431839 
	C389.236298,106.888885 389.439667,107.698410 389.833588,108.757332 
	C390.040405,112.669716 390.306854,116.353386 390.006104,119.990158 
	C389.671387,124.038483 391.354004,125.493935 395.816711,125.252129 
	C397.310760,125.320427 398.151733,125.189987 398.992676,125.059555 
	C398.992676,125.059555 399.400757,124.971855 399.898438,124.664917 
	C400.608398,121.590027 400.820679,118.822083 401.032959,116.054138 
	C401.163361,113.613998 401.293823,111.173866 401.598328,108.186409 
	C401.876801,107.491035 401.960846,107.332176 402.024506,107.162506 
	C405.004425,106.973404 408.327911,104.696152 410.703857,108.930031 
	C403.331879,107.008270 402.418304,107.671715 402.381348,115.365959 
	C402.377350,116.194572 402.361237,117.023216 402.342773,117.851662 
	C402.156891,126.193100 402.143738,125.955742 393.496765,126.418747 
	C389.557251,126.629684 388.567688,125.343704 388.754120,121.692795 
	C389.007263,116.735329 388.810486,111.754906 388.919800,106.431839 
z"/>
<path fill="#3C464A" opacity="1.000000" stroke="none" 
	d="
M400.007568,138.728546 
	C405.506287,141.223984 407.204376,145.975800 404.534271,150.732422 
	C402.189514,154.909454 398.492310,153.630096 395.369751,152.783463 
	C394.191803,152.464081 393.359680,149.678162 392.991302,147.888687 
	C392.598663,145.981277 392.941040,143.922562 393.412231,141.488693 
	C394.386047,141.087158 394.910156,141.126816 395.338684,141.595856 
	C395.200043,143.659988 394.770691,145.412460 395.222778,146.896408 
	C395.674561,148.379425 397.008270,149.593796 397.955383,150.925919 
	C399.292145,149.531006 401.292786,148.324051 401.757568,146.682251 
	C402.135925,145.345886 400.674957,143.488785 400.022156,141.472595 
	C400.012299,140.297897 400.009918,139.513229 400.007568,138.728546 
z"/>
<path fill="#2F3A3E" opacity="1.000000" stroke="none" 
	d="
M149.985306,124.982544 
	C149.985306,111.272751 149.985306,97.562965 149.985306,83.853172 
	C150.415573,83.818474 150.845856,83.783768 151.276123,83.749069 
	C151.512833,84.282150 151.749527,84.815231 152.016312,85.677612 
	C152.022003,97.316254 152.016281,108.625710 151.954269,119.934853 
	C151.944321,121.746193 151.682556,123.556152 151.132339,125.492760 
	C150.516541,125.364197 150.269150,125.152122 149.985306,124.982544 
z"/>
<path fill="#313C42" opacity="1.000000" stroke="none" 
	d="
M180.024536,77.022568 
	C180.016983,89.061134 180.049377,101.100037 179.944977,113.137764 
	C179.933548,114.455750 179.135788,115.766907 178.702759,117.081238 
	C178.169052,116.572754 177.635361,116.064262 177.060547,115.234680 
	C177.347183,113.027580 177.920929,111.146919 177.962067,109.254684 
	C178.198395,98.385323 178.308426,87.513222 178.872208,76.518860 
	C179.494553,76.646858 179.741684,76.855820 180.024536,77.022568 
z"/>
<path fill="#3C464A" opacity="1.000000" stroke="none" 
	d="
M264.978271,148.855957 
	C264.979401,145.054611 264.979401,141.724289 264.979401,138.393982 
	C265.819855,138.288849 266.660278,138.183731 267.500732,138.078613 
	C267.931458,139.867401 268.668854,141.644089 268.740082,143.447083 
	C269.057953,151.494904 268.989258,151.497620 276.124298,152.242508 
	C276.169647,152.687607 276.214966,153.132690 276.260315,153.577789 
	C273.108002,153.701004 269.913849,154.140030 266.831970,153.731659 
	C266.033173,153.625793 265.585876,150.867126 264.978271,148.855957 
z"/>
<path fill="#3E4A4D" opacity="1.000000" stroke="none" 
	d="
M180.434357,77.014191 
	C179.741684,76.855820 179.494553,76.646858 179.139709,76.198914 
	C184.561417,74.611649 185.086945,74.970856 185.095230,80.499199 
	C185.115570,94.073372 185.154037,107.648132 185.026520,121.221161 
	C185.009918,122.988319 184.023132,126.266396 183.548096,126.254959 
	C181.039642,126.194527 178.551163,125.304344 176.027863,124.313828 
	C182.724030,126.353043 183.962708,125.541809 183.967987,118.665329 
	C183.977402,106.417450 183.991013,94.169518 183.960358,81.921715 
	C183.954773,79.690842 184.537689,76.956467 180.434357,77.014191 
z"/>
<path fill="#3E4A4D" opacity="1.000000" stroke="none" 
	d="
M149.573242,124.990845 
	C150.269150,125.152122 150.516541,125.364197 150.871002,125.817703 
	C145.697540,127.365273 144.943756,126.918175 144.926239,121.872002 
	C144.878860,108.215744 144.866058,94.558701 144.990250,80.903336 
	C145.006531,79.111641 145.913177,75.793930 146.390945,75.796944 
	C148.924606,75.812912 151.453018,76.663811 154.014740,77.608925 
	C147.066147,75.796028 146.015656,76.486809 146.012878,83.352036 
	C146.007919,95.603592 146.002747,107.855217 146.047440,120.106628 
	C146.055496,122.318832 145.426941,125.090569 149.573242,124.990845 
z"/>
<path fill="#2F3A3E" opacity="1.000000" stroke="none" 
	d="
M104.223297,82.202675 
	C104.130981,85.827469 104.129135,89.457535 103.918747,93.075462 
	C103.738792,96.169861 105.202003,97.030449 108.073250,97.030396 
	C113.821930,97.030304 119.570602,97.309029 125.405273,97.910309 
	C125.244568,98.567612 125.041275,98.821968 124.424950,99.072922 
	C118.200668,99.015198 112.421387,99.188805 106.672562,98.848175 
	C105.120811,98.756226 102.419502,97.163895 102.371796,96.159309 
	C102.149200,91.471954 102.671036,86.749237 103.251984,82.071030 
	C103.792618,82.136147 104.007965,82.169411 104.223297,82.202675 
z"/>
<path fill="#313C42" opacity="1.000000" stroke="none" 
	d="
M245.693512,149.203995 
	C246.456787,146.656784 247.016541,144.021652 248.063766,141.597092 
	C248.642212,140.257919 250.038101,139.271835 251.065491,138.126587 
	C252.124939,139.203568 253.298157,140.194382 254.202866,141.388580 
	C254.782227,142.153320 254.965347,143.218246 255.097290,144.751678 
	C251.810150,146.637833 248.751846,147.920914 245.693512,149.203995 
z"/>
<path fill="#242F35" opacity="1.000000" stroke="none" 
	d="
M321.507324,138.956604 
	C322.301819,139.297913 323.096313,139.639221 323.967712,140.580017 
	C324.116943,145.229202 318.645599,142.048294 318.809357,146.885101 
	C317.848267,144.428436 317.395752,143.271698 316.943207,142.114960 
	C316.626190,142.180740 316.309143,142.246506 315.992096,142.312271 
	C315.992096,145.882736 315.992096,149.453201 315.652527,153.016174 
	C314.860504,153.025070 314.407990,153.041473 313.955505,153.057861 
	C313.955505,153.057861 313.979828,153.042206 313.977173,152.570068 
	C313.969421,147.715500 313.964294,143.333054 313.959167,138.950623 
	C313.959198,138.950623 313.995605,139.002335 314.433960,138.994629 
	C317.084015,138.976822 319.295654,138.966705 321.507324,138.956604 
z"/>
<path fill="#3E4A4D" opacity="1.000000" stroke="none" 
	d="
M355.108398,142.111053 
	C355.106110,142.503967 355.103821,142.896866 354.936646,143.805878 
	C354.903748,145.611023 355.035736,146.900040 355.167755,148.189072 
	C356.174744,149.116684 357.036896,150.455887 358.223358,150.873322 
	C359.911591,151.467285 361.838043,151.384140 363.662720,151.590271 
	C363.671265,152.318192 363.679810,153.046097 363.688354,153.774002 
	C360.211884,153.774002 356.664215,154.146667 353.310242,153.505737 
	C352.496033,153.350159 352.077301,149.876572 351.909973,147.892136 
	C351.688385,145.264542 351.892853,142.601013 352.206726,139.687561 
	C353.368958,140.318497 354.238678,141.214783 355.108398,142.111053 
z"/>
<path fill="#2D3739" opacity="1.000000" stroke="none" 
	d="
M423.104858,152.070709 
	C425.355164,148.637680 427.605469,145.204651 430.079590,141.510651 
	C430.731659,141.388260 431.159882,141.526840 431.588135,141.665405 
	C431.607544,141.506149 431.674988,141.219330 431.639465,141.205948 
	C429.967987,140.576416 428.287628,139.970596 426.608246,139.362091 
	C426.714752,139.001831 426.821228,138.641571 426.927704,138.281311 
	C429.627960,139.211075 432.328247,140.140839 435.028503,141.070602 
	C433.389648,143.318054 431.750793,145.565506 429.526489,148.073929 
	C428.629059,148.898315 428.316986,149.461731 428.004913,150.025146 
	C428.004913,150.025146 427.996429,149.992996 427.734375,150.094910 
	C427.277557,150.432968 427.057037,150.653778 426.902069,150.913696 
	C426.848907,151.002808 426.949585,151.310608 426.997314,151.314682 
	C429.677063,151.542389 432.358673,151.748520 435.040070,151.956787 
	C435.040070,151.956787 435.082794,151.951614 434.755768,152.205780 
	C430.654114,152.330185 426.879486,152.200439 423.104858,152.070709 
z"/>
<path fill="#44A5A3" opacity="1.000000" stroke="none" 
	d="
M431.249939,123.974945 
	C428.537140,119.511627 426.131073,114.818062 423.010376,110.660919 
	C420.692719,107.573494 421.069153,105.768250 424.500397,103.900703 
	C424.953430,105.846725 424.454193,108.241920 425.324829,109.930984 
	C427.718597,114.574883 430.686920,118.922646 433.199188,123.709679 
	C432.396973,124.012833 431.823486,123.993889 431.249939,123.974945 
z"/>
<path fill="#AEA94F" opacity="1.000000" stroke="none" 
	d="
M448.660767,80.346031 
	C448.565948,74.718712 448.200043,69.078232 448.472504,63.468754 
	C448.651337,59.785767 447.805237,57.541630 444.054657,56.394707 
	C441.053223,55.476860 438.248871,53.914570 435.190125,52.306496 
	C435.023224,51.974693 435.236511,51.735474 435.567352,51.804131 
	C436.570740,51.945072 437.243286,52.017361 437.931610,52.087395 
	C437.947388,52.085140 437.964691,52.111931 438.173889,52.303268 
	C438.917969,52.663189 439.452911,52.831772 439.993408,53.000633 
	C439.999023,53.000916 440.005890,53.009598 440.209167,53.219452 
	C440.962219,53.604855 441.512054,53.780411 442.262512,54.010406 
	C442.463165,54.064842 442.868042,54.159340 443.044586,54.330460 
	C443.494171,54.695675 443.796173,54.818493 444.397400,55.015274 
	C445.404358,55.511494 446.141022,55.862476 447.110107,56.385170 
	C447.899048,56.702431 448.455627,56.847980 449.221252,57.287102 
	C449.569977,59.024792 449.709595,60.468914 449.673859,62.285255 
	C449.569336,67.464813 449.640198,72.272156 449.696228,77.427826 
	C449.755981,78.234947 449.830505,78.693756 449.703979,79.358795 
	C449.222229,79.825363 448.941498,80.085701 448.660767,80.346031 
z"/>
<path fill="#2F3A3E" opacity="1.000000" stroke="none" 
	d="
M315.992096,153.023666 
	C315.992096,149.453201 315.992096,145.882736 315.992096,142.312271 
	C316.309143,142.246506 316.626190,142.180740 316.943207,142.114960 
	C317.395752,143.271698 317.848267,144.428436 318.809357,146.885101 
	C318.645599,142.048294 324.116943,145.229202 324.051697,140.844635 
	C325.926849,145.449753 325.239655,147.844162 320.790771,148.572510 
	C317.578522,149.098389 316.911133,150.824799 316.233276,153.373627 
	C315.992401,153.437653 315.992096,153.023666 315.992096,153.023666 
z"/>
<path fill="#414B4F" opacity="1.000000" stroke="none" 
	d="
M415.864136,139.756577 
	C415.964905,144.722214 415.964905,149.274979 415.964905,153.827744 
	C412.815582,151.632767 411.905823,140.920639 413.452484,139.070419 
	C413.724518,138.744995 414.968323,139.231918 415.864136,139.756577 
z"/>
<path fill="#242F35" opacity="1.000000" stroke="none" 
	d="
M245.576660,149.472595 
	C248.751846,147.920914 251.810150,146.637833 255.197128,145.126648 
	C256.022369,146.905258 256.518951,148.912003 257.173187,151.555954 
	C252.895096,151.084656 249.150894,147.816681 247.344757,153.177551 
	C247.250900,153.456146 245.954681,153.329636 245.218262,153.391724 
	C245.298767,152.174866 245.379288,150.958023 245.576660,149.472595 
z"/>
<path fill="#AEA94F" opacity="1.000000" stroke="none" 
	d="
M475.918274,26.906845 
	C481.209747,24.919811 486.501251,22.932775 491.792725,20.945740 
	C492.114777,21.401468 492.436829,21.857199 492.758881,22.312927 
	C492.137207,23.526474 491.515533,24.740021 490.466797,25.997896 
	C490.039734,26.042227 489.719666,25.775177 489.770050,25.477793 
	C488.645660,24.831785 487.470886,24.483164 486.055359,24.211349 
	C485.556244,24.495066 485.297852,24.701975 484.779846,25.102278 
	C484.131866,25.483322 483.743469,25.670975 483.083069,25.873009 
	C481.924896,26.128668 481.038696,26.369946 479.836090,26.751217 
	C478.619354,27.050722 477.719025,27.210234 476.714600,27.329071 
	C476.610535,27.288397 476.167847,27.227333 476.105591,27.147100 
	C476.043335,27.066868 475.918274,26.906845 475.918274,26.906845 
z"/>
<path fill="#2D3739" opacity="1.000000" stroke="none" 
	d="
M355.526459,142.051086 
	C354.238678,141.214783 353.368958,140.318497 352.260864,139.224670 
	C355.645386,138.560532 359.268188,138.093918 363.410492,137.560379 
	C362.488617,143.565796 358.428711,141.142365 355.526459,142.051086 
z"/>
<path fill="#2F3A3E" opacity="1.000000" stroke="none" 
	d="
M104.119034,104.077248 
	C104.105598,109.026108 104.092171,113.974976 103.808319,119.415718 
	C103.316803,119.923843 103.095718,119.940079 102.657318,119.617386 
	C102.572327,114.204521 102.704651,109.130577 103.157555,104.057732 
	C103.691765,104.064972 103.905403,104.071114 104.119034,104.077248 
z"/>
<path fill="#2F3A3E" opacity="1.000000" stroke="none" 
	d="
M208.087692,104.054314 
	C208.078461,109.016052 208.069214,113.977791 207.790070,119.426331 
	C207.298416,119.924904 207.076675,119.936684 206.636826,119.611160 
	C206.587006,114.190918 206.755310,109.107971 207.214813,104.025223 
	C207.699890,104.035034 207.893784,104.044670 208.087692,104.054314 
z"/>
<path fill="#435358" opacity="1.000000" stroke="none" 
	d="
M102.874626,119.956322 
	C103.095718,119.940079 103.316803,119.923843 103.868591,119.868210 
	C113.468231,119.873749 122.737175,119.918678 132.463470,120.036903 
	C132.769028,120.376083 132.571503,120.601974 131.677185,120.899475 
	C125.209747,121.013268 119.389702,121.140625 113.578285,120.971443 
	C110.003586,120.867378 106.442062,120.310104 102.874626,119.956322 
z"/>
<path fill="#2D3739" opacity="1.000000" stroke="none" 
	d="
M355.577545,148.150742 
	C355.035736,146.900040 354.903748,145.611023 354.945282,144.100449 
	C357.408539,144.325577 359.698273,144.772247 361.988007,145.218918 
	C361.927338,145.907211 361.866699,146.595505 361.806061,147.283813 
	C359.866486,147.560013 357.926910,147.836212 355.577545,148.150742 
z"/>
<path fill="#435358" opacity="1.000000" stroke="none" 
	d="
M206.854950,119.948456 
	C207.076675,119.936684 207.298416,119.924904 207.852036,119.879944 
	C217.464508,119.877083 226.745102,119.907410 236.486572,119.999954 
	C236.799896,120.363991 236.595230,120.620178 235.669357,120.937683 
	C229.189270,121.033501 223.369507,121.144806 217.558670,120.966003 
	C213.983719,120.856003 210.422394,120.302711 206.854950,119.948456 
z"/>
<path fill="#3C464A" opacity="1.000000" stroke="none" 
	d="
M435.277283,140.814331 
	C432.328247,140.140839 429.627960,139.211075 426.927704,138.281311 
	C426.821228,138.641571 426.714752,139.001831 426.608246,139.362091 
	C428.287628,139.970596 429.967987,140.576416 431.639465,141.205948 
	C431.674988,141.219330 431.607544,141.506149 431.588135,141.665405 
	C431.159882,141.526840 430.731659,141.388260 430.066162,141.160065 
	C427.682922,140.967010 425.536926,140.863617 422.779755,140.730774 
	C426.380920,136.845016 433.981018,137.203857 435.277283,140.814331 
z"/>
<path fill="#435358" opacity="1.000000" stroke="none" 
	d="
M104.673897,82.181488 
	C104.007965,82.169411 103.792618,82.136147 103.580566,81.801392 
	C112.692329,81.317131 121.800781,81.134377 130.909241,80.951614 
	C131.108688,80.963058 131.308151,80.974503 131.807129,81.002029 
	C129.240845,81.372856 126.381569,81.952408 123.507889,82.035896 
	C117.384056,82.213821 111.252739,82.134323 104.673897,82.181488 
z"/>
<path fill="#414B4F" opacity="1.000000" stroke="none" 
	d="
M104.577927,104.054871 
	C103.905403,104.071114 103.691765,104.064972 103.492249,103.777000 
	C109.257072,103.315041 115.007088,103.037811 120.758781,102.996704 
	C123.534019,102.976868 125.323517,102.340637 124.881386,99.111031 
	C125.041275,98.821968 125.244568,98.567612 125.691833,98.207825 
	C126.899521,102.590828 125.359444,104.464157 120.496559,104.100243 
	C115.370331,103.716637 110.192253,104.025925 104.577927,104.054871 
z"/>
<path fill="#414B4F" opacity="1.000000" stroke="none" 
	d="
M208.549164,104.041138 
	C207.893784,104.044670 207.699890,104.035034 207.543427,103.754272 
	C213.319885,103.310707 219.058426,103.037178 224.798157,103.009148 
	C227.605316,102.995430 229.297928,102.245193 228.935471,99.093506 
	C228.960831,98.853149 228.986191,98.612793 229.049454,98.009995 
	C230.980087,103.047226 230.461441,103.954437 225.304810,104.000137 
	C219.873764,104.048286 214.442062,104.021820 208.549164,104.041138 
z"/>
<path fill="#AEA94F" opacity="1.000000" stroke="none" 
	d="
M490.199768,26.175732 
	C487.853333,30.182177 485.346832,34.055115 482.402649,37.956467 
	C481.964996,37.984875 481.662292,37.726578 481.759033,37.392860 
	C484.477081,33.297821 487.098358,29.536499 489.719666,25.775177 
	C489.719666,25.775177 490.039734,26.042227 490.199768,26.175732 
z"/>
<path fill="#D6CD3F" opacity="1.000000" stroke="none" 
	d="
M429.692810,41.131729 
	C430.495667,41.119938 430.957153,41.156673 431.502014,41.405426 
	C429.608490,43.457783 427.631592,45.298122 425.509216,47.332138 
	C425.107147,47.729202 424.894348,47.971107 424.725311,48.251522 
	C424.725311,48.251522 424.420898,48.267628 424.200867,47.894218 
	C423.703674,47.279152 423.426514,47.037495 423.149353,46.795845 
	C425.216705,44.923988 427.284058,43.052124 429.692810,41.131729 
z"/>
<path fill="#42AEAD" opacity="1.000000" stroke="none" 
	d="
M410.728882,109.598343 
	C413.126617,113.068008 415.546143,116.906906 417.966492,121.137535 
	C415.561768,117.675369 413.156189,113.821472 410.728882,109.598343 
z"/>
<path fill="#313C42" opacity="1.000000" stroke="none" 
	d="
M395.434296,141.166473 
	C394.910156,141.126816 394.386047,141.087158 393.468445,141.030518 
	C393.527893,140.015884 393.827484,138.299011 394.464172,138.163284 
	C396.013153,137.833084 397.718597,138.236877 399.684296,138.536774 
	C400.009918,139.513229 400.012299,140.297897 399.682373,141.438416 
	C398.044800,141.585007 396.739532,141.375748 395.434296,141.166473 
z"/>
<path fill="#AEA94F" opacity="1.000000" stroke="none" 
	d="
M468.775604,67.248985 
	C463.671906,64.472557 463.160583,69.849319 460.328003,71.868225 
	C459.942261,71.946564 459.785736,71.795380 459.850983,71.527939 
	C459.964233,70.896179 460.012207,70.531868 460.151611,69.888824 
	C460.310425,69.426514 460.377808,69.242935 460.684662,68.962616 
	C461.333038,68.181915 461.741943,67.497948 462.363831,66.509644 
	C464.807068,66.362404 467.037384,66.519493 469.144806,66.819778 
	C469.021912,66.962982 468.775604,67.248985 468.775604,67.248985 
z"/>
<path fill="#AEA94F" opacity="1.000000" stroke="none" 
	d="
M482.086700,71.085854 
	C479.829773,71.055824 477.467651,71.432190 475.345215,70.882713 
	C473.174744,70.320808 471.239319,68.851036 468.988281,67.513824 
	C468.775604,67.248985 469.021912,66.962982 469.475464,66.953850 
	C472.324615,68.066162 474.720215,69.187614 477.406372,70.475540 
	C479.054932,70.685539 480.412903,70.729065 481.849792,70.850952 
	C481.928711,70.929306 482.086700,71.085854 482.086700,71.085854 
z"/>
<path fill="#354247" opacity="1.000000" stroke="none" 
	d="
M60.310509,117.793640 
	C59.691952,113.957558 59.360416,109.879585 59.025612,105.381149 
	C62.718121,108.761032 62.778046,113.016251 60.310509,117.793640 
z"/>
<path fill="#AEA94F" opacity="1.000000" stroke="none" 
	d="
M482.060699,53.944939 
	C483.184753,58.438553 484.308838,62.932167 485.147919,67.672073 
	C484.862946,67.918365 484.736816,67.843658 484.745239,67.589775 
	C484.527374,66.895157 484.301117,66.454422 484.037415,65.651077 
	C483.657349,63.876034 483.314697,62.463608 482.975769,60.736889 
	C482.752960,59.645863 482.526398,58.869137 482.210388,57.839760 
	C482.067627,57.416565 482.014343,57.246021 481.958557,56.715385 
	C481.886993,55.642635 481.817902,54.929966 481.826782,54.149258 
	C481.904816,54.081219 482.060699,53.944939 482.060699,53.944939 
z"/>
<path fill="#AEA94F" opacity="1.000000" stroke="none" 
	d="
M481.408203,39.404350 
	C478.242279,42.855934 479.542542,46.500553 480.838074,50.674446 
	C480.732361,51.199352 480.418274,51.434792 480.253174,51.176102 
	C479.709717,49.972549 479.331360,49.027683 478.952576,47.719585 
	C478.661072,45.962852 478.369934,44.569355 478.109894,42.839489 
	C479.033539,41.275257 479.926056,40.047394 480.965576,38.966171 
	C481.112549,39.112812 481.408203,39.404350 481.408203,39.404350 
z"/>
<path fill="#AEA94F" opacity="1.000000" stroke="none" 
	d="
M424.969421,48.510784 
	C424.894348,47.971107 425.107147,47.729202 425.789124,47.531330 
	C427.447510,48.055286 428.680511,48.573723 430.142090,49.282166 
	C430.941589,49.611156 431.512543,49.750145 432.381012,49.970753 
	C433.424408,50.398579 434.170288,50.744789 434.982300,51.259064 
	C435.048401,51.427128 435.236511,51.735474 435.236511,51.735474 
	C435.236511,51.735474 435.023224,51.974693 434.916809,52.094490 
	C431.611450,51.066208 428.412506,49.918129 424.969421,48.510784 
z"/>
<path fill="#3E4A4D" opacity="1.000000" stroke="none" 
	d="
M423.177185,152.461914 
	C426.879486,152.200439 430.654114,152.330185 434.764099,152.225586 
	C435.025848,152.607773 434.917664,153.766113 434.883545,153.763931 
	C431.001953,153.516327 427.125916,153.182343 423.177185,152.461914 
z"/>
<path fill="#313C42" opacity="1.000000" stroke="none" 
	d="
M313.687988,139.266724 
	C313.964294,143.333054 313.969421,147.715500 313.965027,152.564026 
	C313.775909,148.547699 313.596344,144.065262 313.687988,139.266724 
z"/>
<path fill="#44A5A3" opacity="1.000000" stroke="none" 
	d="
M422.023895,124.983315 
	C422.203339,125.010834 422.382782,125.038345 423.146973,125.314835 
	C426.833923,125.703094 429.936035,125.842369 433.038177,125.981644 
	C429.304138,126.088173 425.570068,126.194687 421.658997,125.972290 
	C421.699188,125.453377 421.879822,125.233353 422.023895,124.983315 
z"/>
<path fill="#354247" opacity="1.000000" stroke="none" 
	d="
M59.343781,93.841072 
	C59.015278,91.237999 58.995846,88.445740 58.996384,85.173347 
	C59.228527,87.679436 59.440693,90.665665 59.343781,93.841072 
z"/>
<path fill="#42AEAD" opacity="1.000000" stroke="none" 
	d="
M433.361755,125.884628 
	C429.936035,125.842369 426.833923,125.703094 423.411072,125.381165 
	C425.597076,124.972153 428.103729,124.745781 430.930176,124.247177 
	C431.823486,123.993889 432.396973,124.012833 433.258820,124.040451 
	C433.593201,124.628624 433.639252,125.208122 433.361755,125.884628 
z"/>
<path fill="#42AEAD" opacity="1.000000" stroke="none" 
	d="
M421.817535,124.725281 
	C421.879822,125.233353 421.699188,125.453377 421.317444,125.781151 
	C420.101562,124.712753 419.050201,123.506584 417.982239,121.913361 
	C419.180817,122.506615 420.395996,123.486938 421.817535,124.725281 
z"/>
<path fill="#3E4A4D" opacity="1.000000" stroke="none" 
	d="
M434.791718,151.664520 
	C432.358673,151.748520 429.677063,151.542389 426.997314,151.314682 
	C426.949585,151.310608 426.848907,151.002808 426.902069,150.913696 
	C427.057037,150.653778 427.277557,150.432968 427.750153,150.100250 
	C430.199768,150.459885 432.371552,150.916061 434.791718,151.664520 
z"/>
<path fill="#AEA94F" opacity="1.000000" stroke="none" 
	d="
M467.958130,21.040722 
	C469.044586,22.684893 470.060486,24.393400 471.026276,26.552197 
	C470.976166,27.002483 470.714172,27.245907 470.485474,27.024559 
	C469.547638,26.013498 468.838531,25.223787 468.112305,24.117479 
	C467.979034,22.945293 467.862946,22.089706 467.746826,21.234119 
	C467.746826,21.234121 467.887573,21.105061 467.958130,21.040722 
z"/>
<path fill="#354247" opacity="1.000000" stroke="none" 
	d="
M163.014557,91.643692 
	C162.030411,90.551224 161.009262,89.121529 160.007263,87.325607 
	C161.010117,88.408401 161.993835,89.857430 163.014557,91.643692 
z"/>
<path fill="#313C42" opacity="1.000000" stroke="none" 
	d="
M321.160370,138.720963 
	C319.295654,138.966705 317.084015,138.976822 314.410828,138.972229 
	C316.237366,138.800110 318.525391,138.642715 321.160370,138.720963 
z"/>
<path fill="#354247" opacity="1.000000" stroke="none" 
	d="
M55.019825,101.699562 
	C54.224148,101.627106 53.405540,101.293137 52.586929,100.959175 
	C53.187542,100.342018 53.788155,99.724861 54.717384,99.068497 
	C55.029625,99.832214 55.013256,100.635132 55.019825,101.699562 
z"/>
<path fill="#354247" opacity="1.000000" stroke="none" 
	d="
M53.343994,124.067696 
	C54.115669,123.366249 55.232426,122.678558 56.698090,121.999519 
	C55.927689,122.699265 54.808380,123.390358 53.343994,124.067696 
z"/>
<path fill="#354247" opacity="1.000000" stroke="none" 
	d="
M167.916229,111.359261 
	C168.636627,112.129311 169.319214,113.240402 169.994293,114.700798 
	C169.284027,113.933502 168.581223,112.816902 167.916229,111.359261 
z"/>
<path fill="#313C42" opacity="1.000000" stroke="none" 
	d="
M175.109436,111.632866 
	C174.363129,110.870705 173.679672,109.766418 173.014648,108.315262 
	C173.746140,109.075844 174.459229,110.183296 175.109436,111.632866 
z"/>
<path fill="#354247" opacity="1.000000" stroke="none" 
	d="
M164.912796,106.355415 
	C165.634460,107.121948 166.319397,108.232269 166.987320,109.689178 
	C166.272232,108.923576 165.574142,107.811394 164.912796,106.355415 
z"/>
<path fill="#AEA94F" opacity="1.000000" stroke="none" 
	d="
M452.066711,81.131989 
	C451.020874,81.222069 449.975006,81.312141 449.313416,81.104553 
	C450.487335,80.915260 451.277008,81.023628 452.066711,81.131989 
z"/>
<path fill="#354247" opacity="1.000000" stroke="none" 
	d="
M164.652344,94.557541 
	C164.113480,94.095352 163.558990,93.345459 163.016083,92.277107 
	C163.564011,92.729042 164.100372,93.499428 164.652344,94.557541 
z"/>
<path fill="#D6CD3F" opacity="1.000000" stroke="none" 
	d="
M452.069885,81.114151 
	C451.277008,81.023628 450.487335,80.915260 449.294617,80.812645 
	C448.891602,80.818398 448.640411,80.645172 448.650574,80.495605 
	C448.941498,80.085701 449.222229,79.825363 450.089600,79.338173 
	C451.184082,79.185120 451.691925,79.258926 452.144714,79.619476 
	C452.085266,80.291100 452.080780,80.675972 452.076294,81.060852 
	C452.076294,81.060852 452.073029,81.096313 452.069885,81.114151 
z"/>
<path fill="#354247" opacity="1.000000" stroke="none" 
	d="
M157.077148,82.634857 
	C156.395264,82.186920 155.745804,81.394196 155.067184,80.281845 
	C155.728546,80.738174 156.419052,81.514122 157.077148,82.634857 
z"/>
<path fill="#AEA94F" opacity="1.000000" stroke="none" 
	d="
M471.106506,26.880075 
	C472.530518,26.857573 473.824158,26.957479 475.518036,26.982117 
	C475.918274,26.906845 476.043335,27.066868 476.044952,27.290493 
	C476.046570,27.514116 475.968872,27.817089 475.785797,27.911566 
	C475.602722,28.006042 475.215576,28.147078 474.807220,28.134197 
	C473.317841,28.068325 472.236786,28.015335 471.032471,27.791176 
	C470.909210,27.620008 470.714172,27.245907 470.714172,27.245907 
	C470.714172,27.245907 470.976166,27.002483 471.106506,26.880075 
z"/>
<path fill="#354247" opacity="1.000000" stroke="none" 
	d="
M158.211517,96.449615 
	C158.786743,96.903145 159.391434,97.647484 159.988342,98.718643 
	C159.400711,98.277107 158.820862,97.508766 158.211517,96.449615 
z"/>
<path fill="#354247" opacity="1.000000" stroke="none" 
	d="
M160.003235,86.669357 
	C159.371262,86.206291 158.692520,85.429840 158.019119,84.306671 
	C158.668457,84.758621 159.312454,85.557297 160.003235,86.669357 
z"/>
<path fill="#354247" opacity="1.000000" stroke="none" 
	d="
M58.989513,104.675201 
	C58.409389,104.514374 57.771446,104.046089 57.077969,103.266434 
	C57.658855,103.425949 58.295277,103.896843 58.989513,104.675201 
z"/>
<path fill="#354247" opacity="1.000000" stroke="none" 
	d="
M170.023453,115.299995 
	C170.558334,115.473289 171.170715,115.941551 171.868011,116.706276 
	C171.335602,116.533478 170.718277,116.064224 170.023453,115.299995 
z"/>
<path fill="#AEA94F" opacity="1.000000" stroke="none" 
	d="
M452.386536,81.067642 
	C452.080780,80.675972 452.085266,80.291100 452.331543,79.532562 
	C452.573395,79.158913 452.940674,78.973007 453.156097,78.947281 
	C453.371521,78.921547 453.784882,78.789742 453.887634,78.889236 
	C453.990387,78.988724 454.196991,79.186554 454.196991,79.186554 
	C453.696899,79.815842 453.196838,80.445129 452.386536,81.067642 
z"/>
<path fill="#AEA94F" opacity="1.000000" stroke="none" 
	d="
M484.091553,69.100983 
	C483.608063,69.694901 483.124573,70.288818 482.363892,70.984291 
	C482.086700,71.085854 481.928711,70.929306 481.890686,70.598915 
	C481.857056,70.097702 481.861420,69.926880 481.961060,69.569328 
	C482.207977,69.140450 482.407074,68.947258 482.953918,68.810760 
	C483.453674,68.801933 483.653198,68.785362 483.910583,68.853149 
	C483.968475,68.937508 484.091553,69.100983 484.091553,69.100983 
z"/>
<path fill="#AEA94F" opacity="1.000000" stroke="none" 
	d="
M480.889404,51.081612 
	C481.393066,51.740593 481.739746,52.517315 482.073547,53.619484 
	C482.060699,53.944939 481.904816,54.081219 481.670502,54.076393 
	C481.436188,54.071564 481.103638,53.973888 481.009827,53.658054 
	C480.750122,52.706413 480.584167,52.070606 480.418274,51.434795 
	C480.418274,51.434792 480.732361,51.199352 480.889404,51.081612 
z"/>
<path fill="#3E4A4D" opacity="1.000000" stroke="none" 
	d="
M428.242889,149.815765 
	C428.316986,149.461731 428.629059,148.898315 429.232239,148.169678 
	C429.175873,148.538422 428.828369,149.072403 428.242889,149.815765 
z"/>
<path fill="#313C42" opacity="1.000000" stroke="none" 
	d="
M315.652527,153.016174 
	C315.992096,153.023666 315.992401,153.437653 315.991760,153.643799 
	C315.410461,153.764908 314.829803,153.679840 314.102356,153.326324 
	C314.407990,153.041473 314.860504,153.025070 315.652527,153.016174 
z"/>
<path fill="#AEA94F" opacity="1.000000" stroke="none" 
	d="
M458.228485,74.227325 
	C457.983215,74.722351 457.737915,75.217384 457.165771,75.781013 
	C456.838959,75.849609 456.637390,75.659210 456.679932,75.467651 
	C456.722443,75.276093 456.735901,74.882820 456.856659,74.671051 
	C456.977417,74.459290 457.245453,74.052002 457.416565,74.019806 
	C457.587677,73.987617 457.924774,73.900375 457.999634,73.983109 
	C458.074493,74.065834 458.228485,74.227318 458.228485,74.227325 
z"/>
<path fill="#354247" opacity="1.000000" stroke="none" 
	d="
M58.278656,120.876770 
	C58.202789,120.487495 58.389439,119.934906 58.809395,119.195732 
	C58.875523,119.577255 58.708347,120.145355 58.278656,120.876770 
z"/>
<path fill="#354247" opacity="1.000000" stroke="none" 
	d="
M58.311523,95.900475 
	C58.213299,95.485718 58.399902,94.935318 58.814934,94.195946 
	C58.894360,94.592926 58.745354,95.178879 58.311523,95.900475 
z"/>
<path fill="#354247" opacity="1.000000" stroke="none" 
	d="
M162.945465,103.311401 
	C163.278595,103.485474 163.598267,103.967323 163.948425,104.745583 
	C163.629944,104.567719 163.280975,104.093445 162.945465,103.311401 
z"/>
<path fill="#313C42" opacity="1.000000" stroke="none" 
	d="
M172.055084,106.648697 
	C171.684753,106.481377 171.330841,105.978554 170.892883,105.168831 
	C171.229721,105.345688 171.650620,105.829430 172.055084,106.648697 
z"/>
<path fill="#354247" opacity="1.000000" stroke="none" 
	d="
M155.105164,79.668037 
	C154.722427,79.507919 154.399506,79.033409 154.054016,78.263153 
	C154.409286,78.429489 154.787125,78.891571 155.105164,79.668037 
z"/>
<path fill="#354247" opacity="1.000000" stroke="none" 
	d="
M56.892170,102.697098 
	C56.483261,102.792313 55.930088,102.609909 55.193542,102.192146 
	C55.589417,102.111015 56.168663,102.265236 56.892170,102.697098 
z"/>
<path fill="#354247" opacity="1.000000" stroke="none" 
	d="
M160.938644,100.316620 
	C161.283203,100.487106 161.608917,100.963509 161.956940,101.738571 
	C161.626083,101.565666 161.272949,101.094093 160.938644,100.316620 
z"/>
<path fill="#313C42" opacity="1.000000" stroke="none" 
	d="
M176.090393,113.660431 
	C175.726501,113.500664 175.410706,113.029099 175.066925,112.265892 
	C175.405457,112.432381 175.771973,112.890511 176.090393,113.660431 
z"/>
<path fill="#354247" opacity="1.000000" stroke="none" 
	d="
M55.312366,99.060783 
	C55.486446,98.712868 55.967728,98.383644 56.748993,98.027420 
	C56.572510,98.360107 56.096039,98.719795 55.312366,99.060783 
z"/>
<path fill="#354247" opacity="1.000000" stroke="none" 
	d="
M57.236374,97.857994 
	C57.190804,97.491600 57.381012,96.934059 57.806110,96.190109 
	C57.851383,96.558083 57.661770,97.112457 57.236374,97.857994 
z"/>
<path fill="#354247" opacity="1.000000" stroke="none" 
	d="
M160.035126,99.249916 
	C160.220139,99.193901 160.485855,99.391571 160.866943,99.813065 
	C160.693481,99.859131 160.404648,99.681366 160.035126,99.249916 
z"/>
<path fill="#AEA94F" opacity="1.000000" stroke="none" 
	d="
M482.115662,38.114815 
	C482.127380,38.547115 481.988434,38.849480 481.628845,39.278099 
	C481.408203,39.404350 481.112549,39.112812 481.083740,38.767387 
	C481.225922,38.162685 481.428375,37.930889 481.662292,37.726578 
	C481.662292,37.726578 481.964996,37.984875 482.115662,38.114815 
z"/>
<path fill="#AEA94F" opacity="1.000000" stroke="none" 
	d="
M423.158630,47.116879 
	C423.426514,47.037495 423.703674,47.279152 424.111389,47.770805 
	C423.883911,47.826508 423.525909,47.632210 423.158630,47.116879 
z"/>
<path fill="#354247" opacity="1.000000" stroke="none" 
	d="
M162.031708,102.263153 
	C162.225357,102.200836 162.490799,102.396973 162.872650,102.815498 
	C162.693878,102.865791 162.398697,102.693703 162.031708,102.263153 
z"/>
<path fill="#354247" opacity="1.000000" stroke="none" 
	d="
M157.969299,83.738167 
	C157.775208,83.801353 157.510117,83.606415 157.133606,83.187279 
	C157.314224,83.135399 157.606262,83.307716 157.969299,83.738167 
z"/>
<path fill="#AEA94F" opacity="1.000000" stroke="none" 
	d="
M484.925964,67.955757 
	C484.848999,68.297562 484.708984,68.601974 484.330261,69.003677 
	C484.091553,69.100983 483.968475,68.937508 484.054138,68.695763 
	C484.333466,68.245338 484.532471,68.041885 484.736816,67.843658 
	C484.736816,67.843658 484.862946,67.918365 484.925964,67.955757 
z"/>
<path fill="#354247" opacity="1.000000" stroke="none" 
	d="
M59.284821,118.990295 
	C59.209999,118.769920 59.402950,118.501404 59.818443,118.117905 
	C59.878185,118.316010 59.715385,118.629082 59.284821,118.990295 
z"/>
<path fill="#AEA94F" opacity="1.000000" stroke="none" 
	d="
M459.174866,73.155487 
	C459.009033,73.438293 458.843231,73.721100 458.452942,74.115608 
	C458.228485,74.227318 458.074493,74.065834 458.145203,73.806206 
	C458.420624,73.319000 458.639008,73.105392 458.948212,72.966721 
	C459.025391,73.027672 459.174835,73.155479 459.174866,73.155487 
z"/>
<path fill="#AEA94F" opacity="1.000000" stroke="none" 
	d="
M460.019836,72.022858 
	C460.060852,72.449257 459.900848,72.728622 459.396118,73.046371 
	C459.174835,73.155479 459.025391,73.027672 458.990814,72.742874 
	C458.956238,72.458084 459.002960,72.004311 459.001465,72.002151 
	C459.000000,72.000000 459.004211,72.002525 459.202332,71.961060 
	C459.400421,71.919586 459.785736,71.795380 459.785736,71.795380 
	C459.785736,71.795380 459.942261,71.946564 460.019836,72.022858 
z"/>
<path fill="#354247" opacity="1.000000" stroke="none" 
	d="
M57.219658,121.932899 
	C57.189339,121.777267 57.392487,121.511459 57.816177,121.121536 
	C57.842186,121.272530 57.647655,121.547630 57.219658,121.932899 
z"/>
<path fill="#313C42" opacity="1.000000" stroke="none" 
	d="
M176.981171,114.732620 
	C176.730270,114.873749 176.468597,114.679138 176.150024,114.189026 
	C176.329117,114.137146 176.621552,114.304939 176.981171,114.732620 
z"/>
<path fill="#AEA94F" opacity="1.000000" stroke="none" 
	d="
M456.939392,75.945244 
	C456.874878,76.325935 456.709961,76.611000 456.205292,76.880943 
	C455.865509,76.865822 455.663666,76.661438 455.729980,76.485603 
	C455.796265,76.309769 455.859283,75.938225 455.873596,75.914291 
	C455.887909,75.890358 455.934998,75.860512 456.115479,75.827286 
	C456.295990,75.794060 456.637390,75.659210 456.637390,75.659210 
	C456.637390,75.659210 456.838959,75.849609 456.939392,75.945244 
z"/>
<path fill="#354247" opacity="1.000000" stroke="none" 
	d="
M167.030029,110.268723 
	C167.291840,110.114784 167.555023,110.309814 167.865646,110.815979 
	C167.685226,110.868202 167.391327,110.698387 167.030029,110.268723 
z"/>
<path fill="#AEA94F" opacity="1.000000" stroke="none" 
	d="
M455.966095,76.968338 
	C455.979523,77.403755 455.793884,77.667313 455.143372,77.823547 
	C454.776978,77.785568 454.492462,77.510010 454.582367,77.330307 
	C454.672272,77.150597 454.904938,76.822899 455.098083,76.798859 
	C455.291260,76.774818 455.663666,76.661438 455.663666,76.661438 
	C455.663666,76.661438 455.865509,76.865822 455.966095,76.968338 
z"/>
<path fill="#313C42" opacity="1.000000" stroke="none" 
	d="
M172.965042,107.729340 
	C172.709702,107.877930 172.448990,107.683990 172.137512,107.185570 
	C172.314255,107.134995 172.605225,107.303558 172.965042,107.729340 
z"/>
<path fill="#354247" opacity="1.000000" stroke="none" 
	d="
M164.025757,105.265152 
	C164.218918,105.203011 164.481720,105.402954 164.866379,105.821655 
	C164.690628,105.869347 164.393021,105.698288 164.025757,105.265152 
z"/>
<path fill="#AEA94F" opacity="1.000000" stroke="none" 
	d="
M454.918732,77.923859 
	C455.028992,78.409935 454.883942,78.701149 454.411133,79.061172 
	C454.196991,79.186554 453.990387,78.988724 453.938110,78.679199 
	C453.885864,78.369675 453.918060,77.938133 454.052734,77.819138 
	C454.187439,77.700150 454.492462,77.510010 454.492462,77.510010 
	C454.492462,77.510010 454.776978,77.785568 454.918732,77.923859 
z"/>

<path fill="#38C0BD" opacity="1.000000" stroke="none" 
	d="
M400.837524,116.390701 
	C400.820679,118.822083 400.608398,121.590027 400.105469,124.638283 
	C400.090546,122.188148 400.366302,119.457703 400.837524,116.390701 
z"/>
<path fill="#38C0BD" opacity="1.000000" stroke="none" 
	d="
M398.620789,125.042488 
	C398.151733,125.189987 397.310760,125.320427 396.245728,125.294754 
	C396.764038,125.100899 397.506439,125.063164 398.620789,125.042488 
z"/>
<path fill="#38C0BD" opacity="1.000000" stroke="none" 
	d="
M401.903351,107.240723 
	C401.960846,107.332176 401.876801,107.491035 401.688660,107.735764 
	C401.570648,107.629105 401.629730,107.457932 401.903351,107.240723 
z"/>
<path fill="#0AE7EB" opacity="1.000000" stroke="none" 
	d="
M265.978546,117.922623 
	C267.794098,117.756660 270.007111,118.180191 271.332153,117.286758 
	C273.326996,115.941689 276.426849,112.894760 276.001129,111.953491 
	C274.908997,109.538986 273.926727,106.517120 269.864349,105.940659 
	C265.007263,105.251419 260.358093,103.009514 255.659561,101.326546 
	C253.287399,100.476860 250.530426,99.891998 248.781540,98.281586 
	C245.225586,95.007210 245.384247,88.843750 248.430756,85.125191 
	C258.063416,73.367592 273.795349,76.112648 283.174530,82.099335 
	C283.887421,82.554382 284.357330,84.965294 284.044281,85.183853 
	C282.570831,86.212593 280.611908,87.655945 279.144348,87.362183 
	C275.624268,86.657547 272.303314,84.999168 268.857788,83.859230 
	C267.625092,83.451393 266.262238,83.240433 264.964111,83.261742 
	C260.150085,83.340752 255.490463,86.658463 256.771667,89.891762 
	C257.915588,92.778587 261.604736,95.826698 264.685059,96.520584 
	C270.233948,97.770538 275.576416,98.759811 280.318787,102.245766 
	C286.753998,106.976089 287.503723,113.560753 281.876251,119.324524 
	C275.533020,125.821373 258.679352,127.212646 251.278168,121.304260 
	C252.892548,119.183777 254.449661,117.614189 256.006775,116.044601 
	C256.658783,116.389053 257.310822,116.733521 258.048950,117.750061 
	C260.758636,122.682289 264.630432,123.674240 268.161682,121.032944 
	C267.433167,119.995026 266.705872,118.958824 265.978546,117.922623 
z"/>
<path fill="#0FE3E7" opacity="1.000000" stroke="none" 
	d="
M255.678055,115.931625 
	C254.449661,117.614189 252.892548,119.183777 251.049881,121.013649 
	C247.908157,120.221306 243.992722,119.895546 246.144363,115.153870 
	C247.416931,112.349426 249.290634,111.465446 251.959457,113.753357 
	C252.950958,114.603317 254.211487,115.139420 255.678055,115.931625 
z"/>
<path fill="#0FE3E7" opacity="1.000000" stroke="none" 
	d="
M265.542175,117.901260 
	C266.705872,118.958824 267.433167,119.995026 268.161682,121.032944 
	C264.630432,123.674240 260.758636,122.682289 258.157043,118.018486 
	C260.487946,117.703201 262.796875,117.791557 265.542175,117.901260 
z"/>

<path fill="#032635" opacity="1.000000" stroke="none" 
	d="
M44.564301,124.691330 
	C39.903740,124.927528 34.890865,125.176666 29.923637,124.809021 
	C28.565786,124.708511 26.237431,122.764709 26.228893,121.652435 
	C26.116600,107.019707 26.340277,92.384392 26.726196,77.432144 
	C26.981535,90.928429 27.109356,104.743889 26.925829,118.555206 
	C26.871788,122.621986 28.086634,124.298653 32.314766,124.078102 
	C36.268631,123.871872 40.256355,124.314758 44.564301,124.691330 
z"/>
<path fill="#313C42" opacity="1.000000" stroke="none" 
	d="
M49.111111,97.131180 
	C43.608551,97.692757 38.112484,98.414291 32.596222,98.638069 
	C31.797468,98.670471 30.233009,96.346092 30.174486,95.059929 
	C29.986814,90.935394 30.339680,86.786270 30.839462,82.485733 
	C31.385841,82.571800 31.607967,82.786415 31.899750,83.435623 
	C32.142483,97.784416 32.142586,97.786163 46.311001,96.956985 
	C47.138306,96.908562 47.961861,96.796021 48.867771,96.818069 
	C48.948383,96.922829 49.111111,97.131180 49.111111,97.131180 
z"/>
<path fill="#313C42" opacity="1.000000" stroke="none" 
	d="
M31.754929,104.147903 
	C32.099182,109.055542 32.059814,114.081497 32.009529,119.579880 
	C29.455603,117.189804 29.115278,108.625580 31.754929,104.147903 
z"/>
<path fill="#354247" opacity="1.000000" stroke="none" 
	d="
M50.427994,119.894485 
	C55.158096,112.396652 55.269035,111.074242 51.125359,105.328110 
	C52.590019,107.012878 55.242176,108.831711 55.638218,111.052818 
	C56.290619,114.711693 54.709110,118.181190 50.427994,119.894485 
z"/>
<path fill="#3E4A4D" opacity="1.000000" stroke="none" 
	d="
M31.861338,82.968681 
	C31.607967,82.786415 31.385841,82.571800 31.060490,82.133766 
	C37.117554,82.097755 43.309086,82.252815 49.675602,82.802109 
	C49.850586,83.196335 49.646378,83.451843 49.257504,83.339012 
	C43.199532,83.140350 37.530434,83.054512 31.861338,82.968681 
z"/>
<path fill="#3E4A4D" opacity="1.000000" stroke="none" 
	d="
M51.957108,85.036995 
	C52.475624,87.506920 52.994141,89.976845 53.210335,92.691116 
	C52.908009,92.935471 52.829929,92.878349 52.850647,92.476929 
	C52.555634,89.737816 52.239902,87.400124 51.933052,85.055161 
	C51.941936,85.047874 51.957108,85.036995 51.957108,85.036995 
z"/>
<path fill="#354247" opacity="1.000000" stroke="none" 
	d="
M50.859463,104.771072 
	C49.860325,104.831223 48.716988,104.608223 47.286888,104.181419 
	C48.238506,104.147720 49.476887,104.317818 50.859463,104.771072 
z"/>
<path fill="#313C42" opacity="1.000000" stroke="none" 
	d="
M52.086727,95.105164 
	C51.310871,95.754128 50.535019,96.403099 49.435139,97.091621 
	C49.111111,97.131180 48.948383,96.922829 49.068600,96.608276 
	C50.003948,95.793732 50.819080,95.293732 51.752121,94.864639 
	C51.870033,94.935547 52.086727,95.105164 52.086727,95.105164 
z"/>
<path fill="#3E4A4D" opacity="1.000000" stroke="none" 
	d="
M52.946796,92.964378 
	C52.824986,93.555450 52.664387,94.117622 52.295258,94.892471 
	C52.086727,95.105164 51.870033,94.935547 51.871490,94.605286 
	C52.191936,93.809456 52.510933,93.343903 52.829926,92.878349 
	C52.829929,92.878349 52.908009,92.935471 52.946796,92.964378 
z"/>
<path fill="#3E4A4D" opacity="1.000000" stroke="none" 
	d="
M50.984138,84.013870 
	C51.303860,84.122810 51.559681,84.316261 51.854355,84.815598 
	C51.957108,85.036995 51.941936,85.047874 51.716576,84.951424 
	C51.213978,84.675728 51.005955,84.436333 50.896507,84.106171 
	C50.925873,84.075554 50.984138,84.013870 50.984138,84.013870 
z"/>
<path fill="#3E4A4D" opacity="1.000000" stroke="none" 
	d="
M49.953667,83.069366 
	C50.360016,83.081902 50.606659,83.288872 50.890408,83.788589 
	C50.984138,84.013870 50.925873,84.075554 50.676422,84.024292 
	C50.139324,83.840416 49.879128,83.666687 49.646378,83.451843 
	C49.646378,83.451843 49.850586,83.196335 49.953667,83.069366 
z"/>
<path fill="#0AE7EB" opacity="1.000000" stroke="none" 
	d="
M369.606293,93.605194 
	C371.406586,99.490288 372.743530,105.191635 374.582123,110.726341 
	C375.626953,113.871681 377.590546,116.701012 378.944061,119.759529 
	C379.550568,121.129974 379.675354,122.713577 380.129974,124.681976 
	C374.305603,124.083580 369.577789,123.755013 368.891418,116.936806 
	C368.749207,115.524399 366.036255,113.574715 364.274048,113.282051 
	C360.219635,112.608665 355.730988,111.831871 351.974304,112.955330 
	C349.038300,113.833359 346.301147,117.134254 344.614410,120.023415 
	C342.025238,124.458389 342.440186,124.700630 336.045288,123.233200 
	C337.003326,120.124084 337.871796,117.035172 338.904663,114.002258 
	C342.630249,103.062729 346.301605,92.101624 350.302429,81.262726 
	C350.834473,79.821411 353.169189,78.102219 354.627411,78.139526 
	C357.808136,78.220901 362.132660,78.333130 363.842163,80.299690 
	C366.185455,82.995323 366.488586,87.439926 367.776489,91.096085 
	C368.070099,91.929634 368.815552,92.604027 369.606293,93.605194 
M364.392792,100.967728 
	C363.518188,97.459465 362.894836,93.860031 361.668304,90.479462 
	C361.004944,88.651146 359.311676,87.196510 358.083069,85.573288 
	C357.000092,87.048721 355.560089,88.382233 354.905792,90.028099 
	C353.379272,93.867859 352.501068,97.975807 350.853241,101.753983 
	C349.178345,105.594231 351.644623,107.978630 353.669830,110.030975 
	C355.444641,111.829597 357.914886,111.401321 359.178253,108.475693 
	C359.368042,108.036163 360.671600,108.029274 361.472992,107.910316 
	C365.452667,107.319572 366.632141,105.291893 364.392792,100.967728 
z"/>
<path fill="#0AE6EC" opacity="1.000000" stroke="none" 
	d="
M308.926636,119.742706 
	C309.131317,109.479935 309.362640,99.685974 309.545166,89.891098 
	C309.628052,85.443336 306.768158,84.278000 303.005157,84.248154 
	C299.914948,84.223640 296.824402,84.243149 293.828644,84.243149 
	C293.335907,78.053574 293.933136,77.663666 299.124420,77.764961 
	C309.102234,77.959671 319.087677,77.766556 329.065338,77.966072 
	C330.584229,77.996437 332.763519,78.914398 333.366577,80.079544 
	C333.847168,81.008133 332.591461,84.031082 331.750427,84.185585 
	C330.250031,84.461197 328.215576,83.625076 326.881683,82.620293 
	C324.444092,80.784149 322.895294,80.271408 321.004974,83.429581 
	C319.132111,86.558601 318.669037,89.503304 318.861237,93.162590 
	C319.323029,101.954895 318.964478,110.788673 319.012512,119.605309 
	C319.026886,122.247284 318.573639,124.301804 315.288757,124.135109 
	C312.451782,123.991142 308.839966,125.101463 308.926636,119.742706 
z"/>
<path fill="#082C3B" opacity="1.000000" stroke="none" 
	d="
M124.424950,99.072922 
	C125.323517,102.340637 123.534019,102.976868 120.758781,102.996704 
	C115.007088,103.037811 109.257072,103.315041 103.171677,103.775909 
	C102.704651,109.130577 102.572327,114.204521 102.657318,119.617386 
	C106.442062,120.310104 110.003586,120.867378 113.578285,120.971443 
	C119.389702,121.140625 125.209747,121.013268 131.489838,121.026825 
	C132.252090,123.749481 131.164932,125.041252 128.317703,125.017334 
	C119.505898,124.943336 110.692825,124.942955 101.880905,125.005463 
	C99.136948,125.024925 98.006660,123.880379 98.018127,121.133255 
	C98.074371,107.665428 98.073578,94.197105 98.018021,80.729271 
	C98.006218,77.869530 99.390419,76.990578 102.027779,77.011505 
	C110.340881,77.077446 118.659500,76.893867 126.963837,77.170975 
	C128.320267,77.216232 129.615112,79.106201 130.923828,80.547592 
	C121.800781,81.134377 112.692329,81.317131 103.255280,81.769531 
	C102.671036,86.749237 102.149200,91.471954 102.371796,96.159309 
	C102.419502,97.163895 105.120811,98.756226 106.672562,98.848175 
	C112.421387,99.188805 118.200668,99.015198 124.424950,99.072922 
z"/>
<path fill="#082C3B" opacity="1.000000" stroke="none" 
	d="
M228.521637,99.055862 
	C229.297928,102.245193 227.605316,102.995430 224.798157,103.009148 
	C219.058426,103.037178 213.319885,103.310707 207.252228,103.754082 
	C206.755310,109.107971 206.587006,114.190918 206.636826,119.611160 
	C210.422394,120.302711 213.983719,120.856003 217.558670,120.966003 
	C223.369507,121.144806 229.189270,121.033501 235.465775,121.078751 
	C235.039154,122.389885 234.163147,124.766594 233.263214,124.775696 
	C223.037140,124.879074 212.807449,124.620667 202.229630,124.212372 
	C201.912262,110.179436 202.096085,96.390862 201.886963,82.608246 
	C201.820526,78.228477 203.192810,76.762413 207.582001,76.935822 
	C215.377014,77.243797 223.195175,76.930916 230.997314,77.128418 
	C232.242508,77.159935 233.454666,78.496292 234.682098,79.229408 
	C233.464508,79.804443 232.258789,80.845459 231.027344,80.876823 
	C224.387222,81.045906 217.738510,81.068848 211.097336,80.927361 
	C207.541382,80.851593 205.811203,82.160004 205.970505,85.843567 
	C206.099579,88.828201 205.778137,91.849243 206.120712,94.800255 
	C206.280594,96.177391 207.538605,97.427048 209.136230,98.831894 
	C214.629318,98.909187 219.285080,98.889076 223.940842,98.868973 
	C225.329819,98.918716 226.718811,98.968475 228.521637,99.055862 
z"/>
<path fill="#2F3A3E" opacity="1.000000" stroke="none" 
	d="
M223.597870,98.662010 
	C219.285080,98.889076 214.629318,98.909187 209.516037,98.899170 
	C213.790634,98.731049 218.522766,98.593048 223.597870,98.662010 
z"/>
<path fill="#FBE819" opacity="1.000000" stroke="none" 
	d="
M454.582367,77.330307 
	C454.492462,77.510010 454.187439,77.700150 453.865051,77.966713 
	C453.305542,78.450188 453.104889,78.696770 452.940674,78.973007 
	C452.940674,78.973007 452.573395,79.158913 452.386566,79.245819 
	C451.691925,79.258926 451.184082,79.185120 450.290649,79.131943 
	C449.830505,78.693756 449.755981,78.234947 449.782471,77.000549 
	C449.872040,71.454315 449.860626,66.683678 449.849243,61.913040 
	C449.709595,60.468914 449.569977,59.024792 448.997070,57.094681 
	C448.001740,56.476944 447.439728,56.345200 446.877716,56.213455 
	C446.141022,55.862476 445.404358,55.511494 444.217896,54.846840 
	C443.502197,54.326408 443.202179,54.201801 442.868042,54.159340 
	C442.868042,54.159340 442.463165,54.064842 442.043640,53.818710 
	C441.084686,53.384918 440.545288,53.197254 440.005890,53.009594 
	C440.005890,53.009598 439.999023,53.000916 439.789032,52.798935 
	C439.040924,52.435284 438.502808,52.273609 437.964691,52.111931 
	C437.964691,52.111931 437.947388,52.085140 437.687347,51.873238 
	C436.590271,51.471218 435.753204,51.281109 434.916168,51.091003 
	C434.170288,50.744789 433.424408,50.398579 432.141785,49.796341 
	C431.041199,49.390930 430.477356,49.241543 429.913513,49.092155 
	C428.680511,48.573723 427.447510,48.055286 425.934601,47.337658 
	C427.631592,45.298122 429.608490,43.457783 431.848175,41.425667 
	C432.523407,41.115913 432.935822,40.997936 433.635620,40.878792 
	C433.922974,40.877625 433.934998,41.063763 433.944061,41.430519 
	C434.320343,42.914589 434.687561,44.031902 435.179688,45.303627 
	C435.496582,45.645657 435.716187,45.791912 436.380341,45.931591 
	C437.909943,46.050129 439.022552,46.133877 440.196777,46.513275 
	C441.119171,47.374088 441.979950,47.939251 442.840759,48.504406 
	C442.875092,47.678818 442.909393,46.853233 442.807343,45.822769 
	C442.446716,45.365791 442.175720,45.182865 441.601379,45.065109 
	C441.007050,45.062050 440.669281,45.062996 440.264374,44.692455 
	C439.733124,43.176918 439.269043,42.032860 438.624023,40.704521 
	C437.979614,40.020462 437.516144,39.520683 437.052643,39.020912 
	C438.307251,38.601971 439.540009,37.909859 440.819916,37.807594 
	C450.475250,37.036114 453.196289,31.039953 452.960266,22.398628 
	C452.880371,19.472267 453.352325,16.409958 454.247437,13.627002 
	C454.720428,12.156443 456.536896,10.364435 457.946625,10.170524 
	C459.236511,9.993093 461.204987,11.470245 462.146973,12.752644 
	C463.890900,15.126739 465.103577,17.891050 466.809540,21.072361 
	C467.430847,22.579269 467.780151,23.506668 468.129456,24.434072 
	C468.838531,25.223787 469.547638,26.013498 470.485474,27.024559 
	C470.714172,27.245907 470.909210,27.620008 471.264709,28.067894 
	C472.088348,29.831272 472.441223,31.204220 473.059784,32.444687 
	C473.586395,33.500725 474.297638,35.044994 475.148132,35.205948 
	C476.116364,35.389183 477.579712,34.511597 478.370575,33.666927 
	C479.277466,32.698349 479.682373,31.259762 480.125610,30.381460 
	C478.213531,29.511343 476.714569,28.829208 475.215576,28.147076 
	C475.215576,28.147078 475.602722,28.006042 476.014709,27.831270 
	C476.426727,27.656498 476.818695,27.369743 476.818695,27.369743 
	C477.719025,27.210234 478.619354,27.050722 480.130188,26.814186 
	C481.612122,26.444321 482.483612,26.151478 483.355072,25.858631 
	C483.743469,25.670975 484.131866,25.483322 485.008667,25.011417 
	C485.784424,24.557964 486.050781,24.360422 486.296112,24.134541 
	C487.470886,24.483164 488.645660,24.831785 489.770050,25.477793 
	C487.098358,29.536499 484.477081,33.297821 481.759033,37.392860 
	C481.428375,37.930889 481.225922,38.162685 480.936768,38.620747 
	C479.926056,40.047394 479.033539,41.275257 477.944366,43.071396 
	C478.149475,45.120720 478.551208,46.601768 478.952972,48.082817 
	C479.331360,49.027683 479.709717,49.972549 480.253174,51.176109 
	C480.584167,52.070606 480.750122,52.706413 480.996765,53.989891 
	C481.371979,55.450203 481.666504,56.262840 481.961029,57.075474 
	C482.014343,57.246021 482.067627,57.416565 482.167297,58.147491 
	C482.466461,59.488983 482.719238,60.270084 482.972046,61.051186 
	C483.314697,62.463608 483.657349,63.876034 483.782288,65.847305 
	C483.260925,67.205101 482.957306,68.004059 482.653687,68.803009 
	C482.407074,68.947258 482.207977,69.140450 481.574951,69.687454 
	C479.767639,70.097908 478.441742,70.203484 477.115814,70.309067 
	C474.720215,69.187614 472.324615,68.066162 469.598358,66.810646 
	C467.037384,66.519493 464.807068,66.362404 462.121521,66.544418 
	C461.259277,67.608803 460.852234,68.334084 460.445190,69.059357 
	C460.377808,69.242935 460.310425,69.426514 459.909790,70.027695 
	C459.385742,70.964363 459.194977,71.483444 459.004211,72.002525 
	C459.004211,72.002525 459.000000,72.000000 458.728516,72.117630 
	C458.053162,72.840843 457.649292,73.446419 457.245422,74.052002 
	C457.245453,74.052002 456.977417,74.459290 456.700317,74.814255 
	C456.224274,75.374062 456.061523,75.604492 455.934998,75.860512 
	C455.934998,75.860512 455.887909,75.890358 455.689636,76.032799 
	C455.257690,76.356552 455.062195,76.572433 454.904938,76.822899 
	C454.904938,76.822899 454.672272,77.150597 454.582367,77.330307 
z"/>
<path fill="#D6CD3F" opacity="1.000000" stroke="none" 
	d="
M436.741272,39.045357 
	C437.516144,39.520683 437.979614,40.020462 438.226257,40.721466 
	C436.651276,40.969715 435.293152,41.016743 433.934998,41.063766 
	C433.934998,41.063763 433.922974,40.877625 433.943542,40.784546 
	C434.786041,40.150909 435.608002,39.610359 436.741272,39.045357 
z"/>
<path fill="#BCB649" opacity="1.000000" stroke="none" 
	d="
M468.112305,24.117476 
	C467.780151,23.506668 467.430847,22.579269 467.024811,21.332947 
	C466.968079,21.014023 467.365784,21.097757 467.556335,21.165939 
	C467.862946,22.089706 467.979034,22.945293 468.112305,24.117476 
z"/>
<path fill="#0B2C3C" opacity="1.000000" stroke="none" 
	d="
M79.969727,101.999962 
	C79.970154,108.492622 80.139435,114.493378 79.853455,120.472351 
	C79.780960,121.988007 78.258484,123.434311 77.402283,124.912491 
	C76.611969,123.531540 75.153854,122.159569 75.135162,120.768250 
	C74.958527,107.620010 74.957138,94.467583 75.126953,81.319221 
	C75.145073,79.916512 76.576286,78.532051 77.351967,77.139130 
	C78.224266,78.600883 79.787933,80.034042 79.849770,81.529312 
	C80.124657,88.176483 79.969406,94.841438 79.969727,101.999962 
z"/>
<path fill="#0B0E0E" opacity="1.000000" stroke="none" 
	d="
M395.338684,141.595856 
	C396.739532,141.375748 398.044800,141.585007 399.689819,141.828430 
	C400.674957,143.488785 402.135925,145.345886 401.757568,146.682251 
	C401.292786,148.324051 399.292145,149.531006 397.955383,150.925919 
	C397.008270,149.593796 395.674561,148.379425 395.222778,146.896408 
	C394.770691,145.412460 395.200043,143.659988 395.338684,141.595856 
z"/>
<path fill="#D6CD3F" opacity="1.000000" stroke="none" 
	d="
M449.673889,62.285255 
	C449.860626,66.683678 449.872040,71.454315 449.797241,76.652222 
	C449.640198,72.272156 449.569336,67.464813 449.673889,62.285255 
z"/>
<path fill="#D6CD3F" opacity="1.000000" stroke="none" 
	d="
M434.982300,51.259064 
	C435.753204,51.281109 436.590271,51.471218 437.671570,51.875488 
	C437.243286,52.017361 436.570740,51.945072 435.567352,51.804131 
	C435.236511,51.735474 435.048401,51.427128 434.982300,51.259064 
z"/>
<path fill="#D6CD3F" opacity="1.000000" stroke="none" 
	d="
M447.110107,56.385166 
	C447.439728,56.345200 448.001740,56.476944 448.787964,56.801109 
	C448.455627,56.847980 447.899048,56.702431 447.110107,56.385166 
z"/>
<path fill="#D6CD3F" opacity="1.000000" stroke="none" 
	d="
M440.209167,53.219444 
	C440.545288,53.197254 441.084686,53.384918 441.842957,53.764275 
	C441.512054,53.780411 440.962219,53.604855 440.209167,53.219444 
z"/>
<path fill="#D6CD3F" opacity="1.000000" stroke="none" 
	d="
M438.173889,52.303272 
	C438.502808,52.273609 439.040924,52.435284 439.783447,52.798653 
	C439.452911,52.831772 438.917969,52.663189 438.173889,52.303272 
z"/>
<path fill="#D6CD3F" opacity="1.000000" stroke="none" 
	d="
M443.044586,54.330460 
	C443.202179,54.201801 443.502197,54.326408 443.947632,54.701599 
	C443.796173,54.818493 443.494171,54.695675 443.044586,54.330460 
z"/>
<path fill="#BCB649" opacity="1.000000" stroke="none" 
	d="
M483.083069,25.873013 
	C482.483612,26.151478 481.612122,26.444321 480.446594,26.674194 
	C481.038696,26.369946 481.924896,26.128668 483.083069,25.873013 
z"/>
<path fill="#BCB649" opacity="1.000000" stroke="none" 
	d="
M476.714600,27.329071 
	C476.818695,27.369743 476.426727,27.656498 476.197815,27.736794 
	C475.968872,27.817089 476.046570,27.514116 476.107208,27.370724 
	C476.167847,27.227333 476.610535,27.288397 476.714600,27.329071 
z"/>
<path fill="#BCB649" opacity="1.000000" stroke="none" 
	d="
M486.055359,24.211349 
	C486.050781,24.360422 485.784424,24.557964 485.268280,24.818024 
	C485.297852,24.701975 485.556244,24.495066 486.055359,24.211349 
z"/>
<path fill="#BCB649" opacity="1.000000" stroke="none" 
	d="
M460.684662,68.962616 
	C460.852234,68.334084 461.259277,67.608803 461.908600,66.848755 
	C461.741943,67.497948 461.333038,68.181915 460.684662,68.962616 
z"/>
<path fill="#BCB649" opacity="1.000000" stroke="none" 
	d="
M459.202332,71.961060 
	C459.194977,71.483444 459.385742,70.964363 459.818359,70.306412 
	C460.012207,70.531868 459.964233,70.896179 459.850983,71.527939 
	C459.785736,71.795380 459.400421,71.919586 459.202332,71.961060 
z"/>
<path fill="#BCB649" opacity="1.000000" stroke="none" 
	d="
M477.406372,70.475540 
	C478.441742,70.203484 479.767639,70.097908 481.479675,69.874191 
	C481.861420,69.926880 481.857056,70.097702 481.811768,70.520554 
	C480.412903,70.729065 479.054932,70.685539 477.406372,70.475540 
z"/>
<path fill="#BCB649" opacity="1.000000" stroke="none" 
	d="
M482.953918,68.810760 
	C482.957306,68.004059 483.260925,67.205101 483.819702,66.209915 
	C484.301117,66.454422 484.527374,66.895157 484.745239,67.589775 
	C484.532471,68.041885 484.333466,68.245338 483.996246,68.611404 
	C483.653198,68.785362 483.453674,68.801933 482.953918,68.810760 
z"/>
<path fill="#BCB649" opacity="1.000000" stroke="none" 
	d="
M482.975769,60.736893 
	C482.719238,60.270084 482.466461,59.488983 482.256775,58.400146 
	C482.526398,58.869137 482.752960,59.645863 482.975769,60.736893 
z"/>
<path fill="#BCB649" opacity="1.000000" stroke="none" 
	d="
M481.958557,56.715385 
	C481.666504,56.262840 481.371979,55.450203 481.090546,54.305725 
	C481.103638,53.973888 481.436188,54.071564 481.592468,54.144432 
	C481.817902,54.929966 481.886993,55.642635 481.958557,56.715385 
z"/>
<path fill="#BCB649" opacity="1.000000" stroke="none" 
	d="
M478.952576,47.719589 
	C478.551208,46.601768 478.149475,45.120720 477.913269,43.407761 
	C478.369934,44.569355 478.661072,45.962852 478.952576,47.719589 
z"/>
<path fill="#D6CD3F" opacity="1.000000" stroke="none" 
	d="
M430.142090,49.282162 
	C430.477356,49.241543 431.041199,49.390930 431.844269,49.714729 
	C431.512543,49.750145 430.941589,49.611156 430.142090,49.282162 
z"/>
<path fill="#BCB649" opacity="1.000000" stroke="none" 
	d="
M474.807220,28.134193 
	C476.714569,28.829208 478.213531,29.511343 480.125610,30.381460 
	C479.682373,31.259762 479.277466,32.698349 478.370575,33.666927 
	C477.579712,34.511597 476.116364,35.389183 475.148132,35.205948 
	C474.297638,35.044994 473.586395,33.500725 473.059784,32.444687 
	C472.441223,31.204220 472.088348,29.831272 471.388000,28.239063 
	C472.236786,28.015335 473.317841,28.068325 474.807220,28.134193 
z"/>
<path fill="#D6CD3F" opacity="1.000000" stroke="none" 
	d="
M453.156097,78.947281 
	C453.104889,78.696770 453.305542,78.450188 453.730347,78.085709 
	C453.918060,77.938133 453.885864,78.369675 453.835388,78.579712 
	C453.784882,78.789742 453.371521,78.921547 453.156097,78.947281 
z"/>
<path fill="#BCB649" opacity="1.000000" stroke="none" 
	d="
M457.416565,74.019806 
	C457.649292,73.446419 458.053162,72.840843 458.729980,72.119789 
	C459.002960,72.004311 458.956238,72.458084 458.913635,72.681923 
	C458.639008,73.105392 458.420624,73.319000 458.070343,73.723480 
	C457.924774,73.900375 457.587677,73.987617 457.416565,74.019806 
z"/>
<path fill="#D6CD3F" opacity="1.000000" stroke="none" 
	d="
M456.115479,75.827286 
	C456.061523,75.604492 456.224274,75.374062 456.579559,75.026016 
	C456.735901,74.882820 456.722443,75.276093 456.679932,75.467651 
	C456.637390,75.659210 456.295990,75.794060 456.115479,75.827286 
z"/>
<path fill="#D6CD3F" opacity="1.000000" stroke="none" 
	d="
M455.098083,76.798859 
	C455.062195,76.572433 455.257690,76.356552 455.675323,76.056732 
	C455.859283,75.938225 455.796265,76.309769 455.729980,76.485603 
	C455.663666,76.661438 455.291260,76.774818 455.098083,76.798859 
z"/>

<path fill="#2CD0CF" opacity="1.000000" stroke="none" 
	d="
M364.566895,101.308395 
	C366.632141,105.291893 365.452667,107.319572 361.472992,107.910316 
	C360.671600,108.029274 359.368042,108.036163 359.178253,108.475693 
	C357.914886,111.401321 355.444641,111.829597 353.669830,110.030975 
	C351.644623,107.978630 349.178345,105.594231 350.853241,101.753983 
	C352.501068,97.975807 353.379272,93.867859 354.905792,90.028099 
	C355.560089,88.382233 357.000092,87.048721 358.083069,85.573288 
	C359.311676,87.196510 361.004944,88.651146 361.668304,90.479462 
	C362.894836,93.860031 363.518188,97.459465 364.566895,101.308395 
M360.603271,95.849251 
	C359.881531,93.854698 359.159760,91.860153 358.438019,89.865601 
	C356.435791,92.692078 355.596100,95.320999 354.659882,97.915085 
	C351.850403,105.699318 352.126434,106.116394 360.196503,105.650948 
	C361.106628,105.598457 361.999176,105.241219 363.313965,104.926025 
	C362.423401,101.913589 361.638214,99.257645 360.603271,95.849251 
z"/>
<path fill="#FAF166" opacity="1.000000" stroke="none" 
	d="
M433.944061,41.430519 
	C435.293152,41.016743 436.651276,40.969715 438.407166,40.905746 
	C439.269043,42.032860 439.733124,43.176918 440.194794,44.977383 
	C440.173340,45.828400 440.154266,46.023010 440.135162,46.217621 
	C439.022552,46.133877 437.909943,46.050129 436.255981,45.776958 
	C435.523865,45.397526 435.303894,45.251419 435.054779,45.149220 
	C434.687561,44.031902 434.320343,42.914589 433.944061,41.430519 
z"/>
<path fill="#D6CD3F" opacity="1.000000" stroke="none" 
	d="
M440.196777,46.513275 
	C440.154266,46.023010 440.173340,45.828400 440.261963,45.348866 
	C440.669281,45.062996 441.007050,45.062050 441.760590,45.250179 
	C442.401215,45.675732 442.656982,45.871861 442.943665,46.027649 
	C442.909393,46.853233 442.875092,47.678818 442.840759,48.504406 
	C441.979950,47.939251 441.119171,47.374088 440.196777,46.513275 
z"/>
<path fill="#D6CD3F" opacity="1.000000" stroke="none" 
	d="
M435.179688,45.303627 
	C435.303894,45.251419 435.523865,45.397526 435.838989,45.742168 
	C435.716187,45.791912 435.496582,45.645657 435.179688,45.303627 
z"/>
<path fill="#FAF166" opacity="1.000000" stroke="none" 
	d="
M442.807312,45.822769 
	C442.656982,45.871861 442.401215,45.675732 442.017212,45.254185 
	C442.175720,45.182865 442.446716,45.365791 442.807312,45.822769 
z"/>

</svg>